<?xml version="1.0" encoding="UTF-8" standalone="no"?>
<!-- Created with Inkscape (http://www.inkscape.org/) -->

<svg
   width="321.73328mm"
   height="238.83057mm"
   viewBox="0 0 321.73328 238.83057"
   version="1.1"
   id="svg1"
   xml:space="preserve"
   xmlns="http://www.w3.org/2000/svg"
   xmlns:svg="http://www.w3.org/2000/svg"><defs
     id="defs1" /><g
     id="g1"
     transform="matrix(0.26458332,0,0,0.26458334,-45.155531,-45.155558)"><path
       id="path1"
       d="m 0,127 c 0,3.3137 2.686291,6 6,6 h 292 c 3.31372,0 6,-2.6863 6,-6 V 6 c 0,-3.313705 -2.68628,-6 -6,-6 H 5.999995 C 2.686287,0 0,2.686295 0,6 Z"
       style="fill:#0d99ff;fill-opacity:1;fill-rule:nonzero;stroke:none"
       transform="matrix(1.3333333,0,0,-1.3333333,576,348)" /><path
       id="path2"
       d="m 78.111557,-15.028381 z m 19.0625,21.448864 c -0.151512,1.344698 -0.776512,2.386364 -1.875,3.125 -1.098488,0.748106 -2.481064,1.122158 -4.147728,1.122158 -1.193184,0 -2.22538,-0.189394 -3.096588,-0.56818 -0.871216,-0.369318 -1.548302,-0.880682 -2.03125,-1.534092 -0.473488,-0.643938 -0.710228,-1.37784 -0.710228,-2.201706 0,-0.691286 0.160988,-1.287876 0.482956,-1.78977 0.331436,-0.501894 0.762306,-0.923296 1.29261,-1.264206 0.539772,-0.331438 1.117424,-0.610794 1.732956,-0.838068 0.615532,-0.217802 1.207382,-0.397726 1.775566,-0.539772 l 2.840912,-0.738636 c 0.928032,-0.227274 1.87973,-0.535038 2.85511,-0.923296 0.97538,-0.388258 1.879738,-0.89962 2.713074,-1.53409 0.833336,-0.63447 1.505683,-1.420456 2.017043,-2.357956 0.52084,-0.9375 0.78125,-2.059658 0.78125,-3.366478 0,-1.647728 -0.42614,-3.110794 -1.27841,-4.389202 -0.842797,-1.278408 -2.069123,-2.286934 -3.678979,-3.02557 -1.60038,-0.738636 -3.536926,-1.107956 -5.809654,-1.107956 -2.178032,0 -4.062508,0.345646 -5.653412,1.036934 -1.590912,0.691288 -2.836174,1.671402 -3.735794,2.940342 -0.89962,1.278408 -1.396782,2.793556 -1.491478,4.545452 h 4.403404 c 0.08523,-1.051136 0.42614,-1.927082 1.022728,-2.627842 0.606064,-0.691288 1.377846,-1.207386 2.315346,-1.548294 0.946968,-0.33144 1.983902,-0.497158 3.110794,-0.497158 1.240532,0 2.34375,0.19413 3.309662,0.582386 0.97538,0.397728 1.742424,0.946972 2.301132,1.647728 0.558708,0.710224 0.838066,1.538822 0.838066,2.485794 0,0.861744 -0.246208,1.567234 -0.738632,2.116478 -0.482956,0.549244 -1.141098,1.003788 -1.974434,1.363636 -0.82386,0.359848 -1.75663,0.677082 -2.798294,0.951706 l -3.4375,0.9375 c -2.329544,0.63447 -4.176132,1.567234 -5.539772,2.798294 -1.354164,1.231062 -2.03125,2.85985 -2.03125,4.886364 0,1.676138 0.454544,3.139206 1.363632,4.389206 0.909096,1.25 2.140152,2.220644 3.693184,2.91193 1.553032,0.700759 3.304924,1.051138 5.255684,1.051138 1.969696,0 3.707382,-0.345644 5.213066,-1.036932 1.515152,-0.69129 2.708336,-1.642994 3.579551,-2.855114 0.87121,-1.202652 1.32575,-2.585228 1.36363,-4.147728 z m 5.799693,-21.448864 z m 12.04545,-0.440342 c -2.11174,0 -3.92992,0.478222 -5.45454,1.434662 -1.51515,0.965908 -2.67993,2.296398 -3.49433,3.991474 -0.81439,1.695076 -1.22158,3.636364 -1.22158,5.823868 0,2.215908 0.41666,4.1714 1.25,5.866476 0.83333,1.704546 2.00757,3.035038 3.52272,3.991476 1.51516,0.956438 3.30019,1.434658 5.35512,1.434658 1.6572,0 3.13447,-0.307764 4.43182,-0.923294 1.29735,-0.60606 2.34375,-1.458332 3.1392,-2.556818 0.80492,-1.098486 1.28315,-2.38163 1.43466,-3.849432 h -4.13352 c -0.22728,1.022726 -0.74811,1.903408 -1.5625,2.642046 -0.80493,0.738636 -1.88448,1.107954 -3.23864,1.107954 -1.18371,0 -2.22064,-0.3125 -3.1108,-0.9375 -0.88068,-0.61553 -1.56723,-1.496212 -2.05965,-2.642046 -0.49243,-1.136364 -0.73864,-2.481062 -0.73864,-4.03409 0,-1.590908 0.24148,-2.964016 0.72443,-4.11932 0.48296,-1.1553 1.16478,-2.050186 2.04546,-2.684658 0.89015,-0.634472 1.93655,-0.951706 3.1392,-0.951706 0.80492,0 1.53409,0.146782 2.1875,0.440342 0.66288,0.303028 1.21686,0.733902 1.66193,1.292614 0.45455,0.558712 0.77178,1.23106 0.95171,2.017044 h 4.13352 c -0.15151,-1.410984 -0.6108,-2.670456 -1.37784,-3.778408 -0.76705,-1.107952 -1.79451,-1.979164 -3.08239,-2.613636 -1.2784,-0.634472 -2.77935,-0.951706 -4.50284,-0.951706 z m 9.76986,0.440342 z m 12.25853,-0.440342 c -2.14963,0 -4.00096,0.459282 -5.55398,1.377842 -1.54357,0.928028 -2.73674,2.230114 -3.57955,3.90625 -0.83333,1.685604 -1.25,3.660038 -1.25,5.923298 0,2.234846 0.41667,4.204544 1.25,5.90909 0.84281,1.704546 2.01705,3.035038 3.52272,3.991476 1.51516,0.956438 3.286,1.434658 5.3125,1.434658 1.23107,0 2.42426,-0.203598 3.57956,-0.610794 1.15529,-0.407198 2.19223,-1.046402 3.1108,-1.917614 0.91856,-0.871212 1.64299,-2.00284 2.17329,-3.394886 0.5303,-1.382576 0.79546,-3.063448 0.79546,-5.042614 v -1.505684 h -17.34375 v 3.18182 h 13.1818 c 0,1.117424 -0.22726,2.107008 -0.6818,2.96875 -0.45455,0.871212 -1.09375,1.557766 -1.91762,2.05966 -0.81439,0.501894 -1.77083,0.75284 -2.86933,0.75284 -1.19317,0 -2.23484,-0.29356 -3.125,-0.880682 -0.88067,-0.57765 -1.5625,-1.335226 -2.04545,-2.272726 -0.47348,-0.92803 -0.71022,-1.936554 -0.71022,-3.02557 v -2.485794 c 0,-1.458332 0.25567,-2.698864 0.76704,-3.721592 0.52083,-1.022728 1.24527,-1.803978 2.1733,-2.34375 0.92802,-0.530304 2.01231,-0.795456 3.25283,-0.795456 0.80494,0 1.53884,0.113636 2.20171,0.340912 0.66289,0.236744 1.23579,0.58712 1.71875,1.051136 0.48296,0.464016 0.85228,1.03693 1.10796,1.71875 l 4.01988,-0.724434 c -0.32198,-1.183712 -0.89963,-2.220642 -1.73296,-3.110794 -0.82387,-0.88068 -1.86079,-1.567234 -3.11079,-2.059658 -1.24053,-0.482956 -2.65625,-0.724434 -4.24715,-0.724434 z m 10.33803,0.440342 z m 7.10228,12.954548 v -12.954548 h -4.24716 V 6.789801 h 4.0767 V 3.238665 h 0.26989 c 0.50189,1.155302 1.28787,2.083334 2.35795,2.784092 1.07955,0.700756 2.43845,1.051134 4.07671,1.051134 1.48674,0 2.78882,-0.3125 3.90625,-0.9375 1.11741,-0.61553 1.9839,-1.53409 2.59942,-2.75568 0.61553,-1.22159 0.9233,-2.732008 0.9233,-4.53125 v -13.877842 h -4.24716 v 13.366478 c 0,1.581438 -0.41193,2.817234 -1.2358,3.707386 -0.82387,0.899622 -1.95549,1.349432 -3.39488,1.349432 -0.98485,0 -1.86079,-0.213068 -2.62784,-0.639204 -0.75758,-0.426136 -1.3589,-1.051136 -1.80398,-1.875 -0.4356,-0.814394 -0.6534,-1.799242 -0.6534,-2.954544 z m 15.92396,-12.954548 z m 12.25853,-0.440342 c -2.14962,0 -4.00096,0.459282 -5.55398,1.377842 -1.54357,0.928028 -2.73674,2.230114 -3.57955,3.90625 -0.83332,1.685604 -1.25,3.660038 -1.25,5.923298 0,2.234846 0.41668,4.204544 1.25,5.90909 0.84281,1.704546 2.01705,3.035038 3.52273,3.991476 1.51515,0.956438 3.28599,1.434658 5.3125,1.434658 1.23106,0 2.42425,-0.203598 3.57956,-0.610794 1.15528,-0.407198 2.19222,-1.046402 3.11079,-1.917614 0.91856,-0.871212 1.64299,-2.00284 2.17329,-3.394886 0.53031,-1.382576 0.79546,-3.063448 0.79546,-5.042614 v -1.505684 h -17.34375 v 3.18182 h 13.18181 c 0,1.117424 -0.22727,2.107008 -0.68181,2.96875 -0.45455,0.871212 -1.09375,1.557766 -1.91762,2.05966 -0.81439,0.501894 -1.77083,0.75284 -2.86932,0.75284 -1.19318,0 -2.23485,-0.29356 -3.125,-0.880682 -0.88068,-0.57765 -1.5625,-1.335226 -2.04546,-2.272726 -0.47348,-0.92803 -0.71022,-1.936554 -0.71022,-3.02557 v -2.485794 c 0,-1.458332 0.25568,-2.698864 0.76704,-3.721592 0.52083,-1.022728 1.24527,-1.803978 2.1733,-2.34375 0.92802,-0.530304 2.01231,-0.795456 3.25284,-0.795456 0.80493,0 1.53883,0.113636 2.2017,0.340912 0.66289,0.236744 1.2358,0.58712 1.71875,1.051136 0.48296,0.464016 0.85228,1.03693 1.10796,1.71875 l 4.01988,-0.724434 c -0.32197,-1.183712 -0.89963,-2.220642 -1.73295,-3.110794 -0.82387,-0.88068 -1.8608,-1.567234 -3.1108,-2.059658 -1.24052,-0.482956 -2.65625,-0.724434 -4.24715,-0.724434 z"
       style="fill:#ffffff;fill-opacity:1;fill-rule:nonzero;stroke:none"
       transform="matrix(1.3333333,0,0,-1.3333333,597.33333,259.96216)" /><path
       id="path3"
       d="m 0,127 c 0,3.3137 2.686291,6 6,6 h 292 c 3.31372,0 6,-2.6863 6,-6 V 6 c 0,-3.313705 -2.68628,-6 -6,-6 H 5.999995 C 2.686287,0 0,2.686295 0,6 Z"
       style="fill:#0d99ff;fill-opacity:1;fill-rule:nonzero;stroke:none"
       transform="matrix(1.3333333,0,0,-1.3333333,170.66667,732)" /><path
       id="path4"
       d="m 66.539841,-7.329529 z m 19.0625,21.448864 c -0.151512,1.344698 -0.776512,2.386364 -1.875,3.125 -1.098488,0.748106 -2.481064,1.122158 -4.147728,1.122158 -1.193184,0 -2.22538,-0.189394 -3.096588,-0.56818 -0.871216,-0.369318 -1.548302,-0.880682 -2.03125,-1.534092 -0.473488,-0.643938 -0.710228,-1.37784 -0.710228,-2.201706 0,-0.691286 0.160987,-1.287876 0.482956,-1.78977 0.331436,-0.501894 0.762306,-0.923296 1.29261,-1.264206 0.539772,-0.331438 1.117424,-0.610794 1.732956,-0.838068 0.615532,-0.217802 1.207382,-0.397726 1.775566,-0.539772 l 2.840912,-0.738636 c 0.928032,-0.227274 1.87973,-0.535038 2.85511,-0.923296 0.97538,-0.388258 1.879738,-0.89962 2.713074,-1.53409 0.833335,-0.63447 1.505683,-1.420456 2.017044,-2.357956 0.520835,-0.9375 0.78125,-2.059658 0.78125,-3.366478 0,-1.647728 -0.42614,-3.110794 -1.278412,-4.389202 -0.842797,-1.278408 -2.069123,-2.286934 -3.678978,-3.02557 -1.60038,-0.738636 -3.536927,-1.107956 -5.809654,-1.107956 -2.178032,0 -4.062508,0.345646 -5.653412,1.036934 -1.590912,0.691288 -2.836174,1.671402 -3.735794,2.940342 -0.89962,1.278408 -1.396782,2.793556 -1.491478,4.545452 h 4.403404 c 0.08523,-1.051136 0.42614,-1.927082 1.022728,-2.627842 0.606064,-0.691288 1.377846,-1.207386 2.315346,-1.548294 0.946968,-0.33144 1.983902,-0.497158 3.110794,-0.497158 1.240532,0 2.34375,0.19413 3.309662,0.582386 0.975379,0.397728 1.742424,0.946972 2.301132,1.647728 0.558708,0.710224 0.838066,1.538822 0.838066,2.485794 0,0.861744 -0.246208,1.567234 -0.738632,2.116478 -0.482956,0.549244 -1.141098,1.003788 -1.974434,1.363636 -0.82386,0.359848 -1.75663,0.677082 -2.798294,0.951706 l -3.4375,0.9375 c -2.329544,0.63447 -4.176133,1.567234 -5.539772,2.798294 -1.354164,1.231062 -2.03125,2.85985 -2.03125,4.886364 0,1.676138 0.454544,3.139206 1.363632,4.389206 0.909096,1.25 2.140152,2.220644 3.693184,2.91193 1.553032,0.70076 3.304924,1.051138 5.255684,1.051138 1.969696,0 3.707382,-0.345644 5.213066,-1.036932 1.515152,-0.69129 2.708336,-1.642994 3.579551,-2.855114 0.871209,-1.202652 1.325753,-2.585228 1.363633,-4.147728 z m 5.79969,-21.448864 z m 5.539772,-8.18182 c -0.634468,0 -1.21212,0.05208 -1.732956,0.15625 -0.520836,0.0947 -0.909088,0.198864 -1.164772,0.3125 l 1.022728,3.480114 c 0.776512,-0.208332 1.467804,-0.298294 2.073868,-0.269886 0.606056,0.02841 1.141098,0.255684 1.60511,0.68182 0.473488,0.426136 0.890152,1.122158 1.25,2.088066 l 0.525569,1.448864 -7.982959,22.102274 h 4.545456 l 5.525573,-16.931818 h 0.22727 l 5.52557,16.931818 h 4.55966 l -8.99148,-24.730112 c -0.41666,-1.136364 -0.94696,-2.097542 -1.59091,-2.883526 -0.64394,-0.795452 -1.41099,-1.392044 -2.30114,-1.789772 -0.890143,-0.397728 -1.922339,-0.596592 -3.096587,-0.596592 z m 16.236477,8.18182 z M 132.38283,9.161949 128.5334,8.480131 c -0.16099,0.492424 -0.41667,0.961174 -0.76705,1.40625 -0.3409,0.445076 -0.80492,0.80966 -1.39204,1.09375 -0.58712,0.28409 -1.32103,0.426136 -2.20171,0.426136 -1.20265,0 -2.20644,-0.269886 -3.01136,-0.809658 -0.80492,-0.530304 -1.20739,-1.216858 -1.20739,-2.05966 0,-0.729166 0.26989,-1.316288 0.80966,-1.761364 0.53977,-0.445076 1.41099,-0.80966 2.61363,-1.09375 l 3.46592,-0.795452 c 2.00757,-0.464016 3.50379,-1.178982 4.48864,-2.14489 0.98484,-0.965908 1.47726,-2.220642 1.47726,-3.764202 0,-1.30682 -0.37878,-2.471592 -1.13635,-3.49432 -0.74811,-1.013256 -1.79451,-1.808712 -3.13921,-2.386364 -1.33523,-0.577652 -2.88353,-0.866478 -4.64489,-0.866478 -2.44318,0 -4.43655,0.520832 -5.98012,1.5625 -1.54355,1.051136 -2.49052,2.542614 -2.8409,4.474434 l 4.10511,0.625 c 0.25568,-1.070076 0.78125,-1.879734 1.57671,-2.428978 0.79545,-0.539772 1.83239,-0.809658 3.11079,-0.809658 1.39205,0 2.50474,0.288826 3.33807,0.866474 0.83332,0.587124 1.25,1.302086 1.25,2.14489 0,0.681816 -0.25568,1.254734 -0.76705,1.71875 -0.50189,0.464016 -1.27367,0.814392 -2.31534,1.051136 l -3.69318,0.809658 c -2.03599,0.464016 -3.54166,1.202652 -4.51704,2.215908 -0.96591,1.01326 -1.44886,2.296404 -1.44886,3.849434 0,1.287878 0.35984,2.414772 1.07954,3.380682 0.7197,0.965908 1.71401,1.718748 2.98296,2.258522 1.26893,0.549242 2.72253,0.823862 4.36079,0.823862 2.35796,0 4.21402,-0.511364 5.56818,-1.53409 1.35417,-1.013258 2.24905,-2.372158 2.68466,-4.076704 z m 1.36076,-16.491478 z m 13.03978,21.818182 v -3.40909 h -11.91762 v 3.40909 z m -8.7216,5.227274 h 4.24716 V -0.923279 c 0,-0.823864 0.12311,-1.444126 0.36932,-1.860794 0.2462,-0.4072 0.56345,-0.686554 0.95171,-0.83807 0.39772,-0.142044 0.8286,-0.213066 1.2926,-0.213066 0.34091,0 0.63921,0.023674 0.8949,0.071022 0.25567,0.047348 0.45454,0.085228 0.59659,0.113636 l 0.76704,-3.508522 c -0.24622,-0.0947 -0.59659,-0.189396 -1.05113,-0.284092 -0.45455,-0.104168 -1.02274,-0.160984 -1.70454,-0.170456 -1.11744,-0.01894 -2.15911,0.179924 -3.125,0.596592 -0.96592,0.416668 -1.74717,1.060608 -2.34376,1.93182 -0.5966,0.871212 -0.89489,1.964962 -0.89489,3.28125 z m 9.45025,-27.045456 z m 12.25853,-0.440342 c -2.14962,0 -4.00096,0.459282 -5.55398,1.377842 -1.54357,0.928028 -2.73674,2.230114 -3.57955,3.90625 -0.83332,1.685604 -1.25,3.660038 -1.25,5.923298 0,2.234846 0.41668,4.204544 1.25,5.90909 0.84281,1.704546 2.01705,3.035038 3.52272,3.991476 1.51516,0.956438 3.286,1.434658 5.3125,1.434658 1.23107,0 2.42426,-0.203598 3.57956,-0.610794 1.15529,-0.407198 2.19223,-1.046402 3.1108,-1.917614 0.91856,-0.871212 1.64299,-2.00284 2.17329,-3.394886 0.53031,-1.382576 0.79546,-3.063448 0.79546,-5.042614 V 2.301151 H 151.7876 v 3.18182 h 13.18181 c 0,1.117424 -0.22727,2.107008 -0.68181,2.96875 -0.45455,0.871212 -1.09375,1.557766 -1.91762,2.05966 -0.81439,0.501894 -1.77083,0.75284 -2.86932,0.75284 -1.19318,0 -2.23485,-0.29356 -3.125,-0.880682 -0.88068,-0.57765 -1.5625,-1.335226 -2.04546,-2.272726 -0.47348,-0.92803 -0.71022,-1.936554 -0.71022,-3.02557 V 2.599449 c 0,-1.458332 0.25568,-2.698864 0.76704,-3.721592 0.52083,-1.022728 1.24527,-1.803978 2.1733,-2.34375 0.92802,-0.530304 2.01231,-0.795456 3.25284,-0.795456 0.80493,0 1.53883,0.113636 2.2017,0.340912 0.66289,0.236744 1.2358,0.58712 1.71875,1.051136 0.48296,0.464016 0.85228,1.03693 1.10796,1.71875 l 4.01988,-0.724434 c -0.32198,-1.183712 -0.89963,-2.220642 -1.73296,-3.110794 -0.82386,-0.88068 -1.86079,-1.567234 -3.11079,-2.059658 -1.24052,-0.482956 -2.65625,-0.724434 -4.24715,-0.724434 z m 10.33803,0.440342 z m 2.85512,0 v 21.818182 h 4.0767 v -3.551136 h 0.26989 c 0.45454,1.20265 1.19792,2.14015 2.23011,2.812498 1.0322,0.681818 2.268,1.022728 3.70739,1.022728 1.45833,0 2.67991,-0.34091 3.66476,-1.022728 0.99433,-0.681816 1.72823,-1.619316 2.20171,-2.812498 h 0.22728 c 0.52083,1.164774 1.34942,2.092804 2.48579,2.784092 1.13637,0.700756 2.49053,1.051134 4.0625,1.051134 1.97917,0 3.59375,-0.620264 4.84375,-1.860794 1.25948,-1.24053 1.88921,-3.110796 1.88921,-5.610796 V -7.329529 h -4.24716 V 6.903427 c 0,1.477272 -0.40247,2.547348 -1.20739,3.210226 -0.80491,0.662878 -1.76609,0.994318 -2.88353,0.994318 -1.38256,0 -2.45738,-0.426136 -3.22442,-1.278408 -0.76705,-0.842804 -1.15058,-1.927084 -1.15058,-3.252842 v -13.90625 h -4.23295 V 7.173313 c 0,1.183712 -0.36933,2.135416 -1.10796,2.855114 -0.73863,0.719696 -1.6998,1.079544 -2.88351,1.079544 -0.80492,0 -1.5483,-0.213068 -2.23012,-0.639204 -0.67235,-0.416666 -1.21684,-0.999054 -1.63352,-1.74716 -0.40719,-0.748106 -0.61079,-1.614582 -0.61079,-2.59943 V -7.329529 Z"
       style="fill:#ffffff;fill-opacity:1;fill-rule:nonzero;stroke:none"
       transform="matrix(1.3333333,0,0,-1.3333333,192,654.22729)" /><path
       id="path5"
       d="m 0,127 c 0,3.3137 2.686291,6 6,6 h 292 c 3.31372,0 6,-2.6863 6,-6 V 6 c 0,-3.313705 -2.68628,-6 -6,-6 H 5.999995 C 2.686287,0 0,2.686295 0,6 Z"
       style="fill:#0d99ff;fill-opacity:1;fill-rule:nonzero;stroke:none"
       transform="matrix(1.3333333,0,0,-1.3333333,576,1073.3333)" /><path
       id="path6"
       d="M 27.605934,-7.32959 Z M 54.96389,12.301092 h -4.43182 c -0.170452,0.94697 -0.487686,1.780304 -0.951702,2.5 -0.464016,0.719698 -1.032196,1.330494 -1.704548,1.832388 -0.672348,0.501894 -1.42519,0.88068 -2.258522,1.136362 -0.823864,0.255682 -1.69981,0.383524 -2.627842,0.383524 -1.676136,0 -3.177082,-0.421402 -4.502838,-1.264206 -1.316288,-0.842804 -2.357956,-2.0786 -3.125004,-3.707386 -0.757572,-1.628788 -1.13636,-3.617424 -1.13636,-5.965908 0,-2.367424 0.378788,-4.365532 1.13636,-5.99432 0.767048,-1.628788 1.81345,-2.859848 3.139206,-3.69318 1.325756,-0.833332 2.817234,-1.25 4.474434,-1.25 0.91856,0 1.789772,0.123104 2.613636,0.369316 0.833332,0.25568 1.586174,0.629734 2.258522,1.122158 0.672348,0.492428 1.240528,1.093754 1.704544,1.803978 0.473484,0.7197 0.80019,1.543564 0.980114,2.471592 L 54.96389,2.031204 C 54.727146,0.60128 54.267868,-0.715008 53.586048,-1.91766 52.9137,-3.11084 52.047222,-4.143036 50.986618,-5.014248 49.935482,-5.875992 48.73283,-6.543606 47.378662,-7.01709 c -1.354168,-0.473484 -2.83144,-0.710228 -4.431816,-0.710228 -2.51894,0 -4.76326,0.596592 -6.732956,1.789772 -1.9697,1.202652 -3.522728,2.921402 -4.659092,5.15625 -1.126894,2.234852 -1.690342,4.90057 -1.690342,7.997162 0,3.10606 0.568182,5.77178 1.704546,7.997158 1.136366,2.23485 2.689394,3.948864 4.65909,5.142046 1.9697,1.202652 4.209282,1.803978 6.718754,1.803978 1.54356,0 2.982952,-0.22254 4.31818,-0.667616 1.344696,-0.435606 2.552082,-1.079544 3.622158,-1.931816 1.070076,-0.842804 1.955494,-1.875002 2.65625,-3.096592 0.700756,-1.212122 1.174244,-2.599432 1.420456,-4.161932 z M 56.139999,-7.32959 Z m 12.045456,-0.440342 c -2.045456,0 -3.83049,0.46875 -5.355114,1.40625 -1.524624,0.9375 -2.708336,2.249054 -3.551136,3.934662 -0.842804,1.685604 -1.264206,3.655304 -1.264206,5.909092 0,2.263256 0.421402,4.242422 1.264206,5.937498 0.8428,1.695076 2.026512,3.011364 3.551136,3.948862 1.524624,0.9375 3.309658,1.40625 5.355114,1.40625 2.045456,0 3.83049,-0.46875 5.35511,-1.40625 1.524621,-0.937498 2.708336,-2.253786 3.55114,-3.948862 0.842804,-1.695076 1.264206,-3.674242 1.264206,-5.937498 0,-2.253788 -0.421402,-4.223488 -1.264206,-5.909092 -0.842804,-1.685608 -2.026519,-2.997162 -3.55114,-3.934662 -1.52462,-0.9375 -3.309654,-1.40625 -5.35511,-1.40625 z m 0.01421,3.565342 c 1.325753,0 2.42424,0.35038 3.295449,1.051136 0.871215,0.700756 1.515159,1.633522 1.931823,2.798294 0.42614,1.164776 0.639206,2.447918 0.639206,3.849434 0,1.392048 -0.213066,2.670456 -0.639206,3.835228 -0.416664,1.174242 -1.060608,2.116478 -1.931823,2.826704 -0.871209,0.710228 -1.969696,1.065342 -3.295449,1.065342 -1.335228,0 -2.443184,-0.355114 -3.323868,-1.065342 -0.871208,-0.710226 -1.519886,-1.652462 -1.946022,-2.826704 -0.416668,-1.164772 -0.625,-2.44318 -0.625,-3.835228 0,-1.401516 0.208332,-2.684658 0.625,-3.849434 0.426136,-1.164772 1.074814,-2.097538 1.946022,-2.798294 0.880684,-0.700756 1.98864,-1.051136 3.323868,-1.051136 z m 11.161896,-3.125 z m 2.85511,0 v 21.818182 h 4.076706 v -3.551136 h 0.26989 c 0.454544,1.20265 1.197914,2.14015 2.23011,2.812498 1.032196,0.681818 2.26799,1.022728 3.70739,1.022728 1.458336,0 2.679924,-0.34091 3.664772,-1.022728 0.994316,-0.681816 1.728218,-1.619316 2.201706,-2.812498 h 0.227272 c 0.520836,1.164774 1.349434,2.092804 2.485793,2.784092 1.13636,0.700756 2.49053,1.051134 4.0625,1.051134 1.97916,0 3.59375,-0.620264 4.84375,-1.860794 1.25947,-1.24053 1.8892,-3.110796 1.8892,-5.610796 V -7.32959 H 107.6286 V 6.903366 c 0,1.477272 -0.40246,2.547348 -1.20738,3.210226 -0.80492,0.662878 -1.7661,0.994318 -2.88352,0.994318 -1.38258,0 -2.45739,-0.426136 -3.22444,-1.278408 C 99.546219,8.986698 99.162697,7.902418 99.162697,6.57666 V -7.32959 H 94.929741 V 7.173252 c 0,1.183712 -0.369316,2.135416 -1.107956,2.855114 -0.73864,0.719696 -1.699814,1.079544 -2.883522,1.079544 -0.804924,0 -1.548302,-0.213068 -2.230118,-0.639204 C 88.035797,10.05204 87.491287,9.469652 87.074623,8.721546 86.667427,7.97344 86.463829,7.106964 86.463829,6.122116 V -7.32959 h -4.247162 z m 31.616449,0 z m 2.85511,-8.18182 v 30.000002 h 4.14773 V 10.95166 h 0.35512 c 0.24621,0.454546 0.60132,0.980114 1.06534,1.576706 0.46401,0.59659 1.10795,1.117424 1.93181,1.5625 0.82387,0.454544 1.91289,0.681816 3.26705,0.681816 1.76136,0 3.33332,-0.445076 4.71591,-1.335228 1.38258,-0.89015 2.46686,-2.173294 3.25284,-3.84943 0.79545,-1.676136 1.19319,-3.693182 1.19319,-6.051136 0,-2.357956 -0.39299,-4.379738 -1.17899,-6.065342 -0.78598,-1.676136 -1.86552,-2.96875 -3.23863,-3.877842 -1.37311,-0.89962 -2.94034,-1.34943 -4.70171,-1.34943 -1.32575,0 -2.41003,0.222538 -3.25283,0.667614 -0.83334,0.445076 -1.48674,0.965908 -1.96023,1.5625 -0.47349,0.596592 -0.83807,1.126892 -1.09375,1.590908 h -0.25569 V -15.51141 Z m 4.16194,19.090912 c 0,-1.534092 0.22254,-2.878788 0.66761,-4.034092 0.44508,-1.155304 1.08902,-2.059662 1.93182,-2.71307 0.8428,-0.64394 1.875,-0.965908 3.09659,-0.965908 1.26894,0 2.32954,0.336174 3.18182,1.008522 0.85228,0.68182 1.49622,1.605114 1.93181,2.769886 0.44508,1.164776 0.66762,2.47633 0.66762,3.934662 0,1.439392 -0.21781,2.732006 -0.65341,3.87784 -0.42614,1.145834 -1.07007,2.05019 -1.93181,2.713068 -0.85228,0.662878 -1.91762,0.994318 -3.19603,0.994318 -1.23106,0 -2.27273,-0.317234 -3.125,-0.951704 -0.84281,-0.63447 -1.48201,-1.519886 -1.91761,-2.65625 -0.43561,-1.136364 -0.65341,-2.46212 -0.65341,-3.977272 z M 137.64062,-7.32959 Z m 12.04546,-0.440342 c -2.04546,0 -3.83049,0.46875 -5.35512,1.40625 -1.52461,0.9375 -2.70833,2.249054 -3.55113,3.934662 -0.8428,1.685604 -1.26421,3.655304 -1.26421,5.909092 0,2.263256 0.42141,4.242422 1.26421,5.937498 0.8428,1.695076 2.02652,3.011364 3.55113,3.948862 1.52463,0.9375 3.30966,1.40625 5.35512,1.40625 2.04546,0 3.83049,-0.46875 5.35512,-1.40625 1.52461,-0.937498 2.70833,-2.253786 3.55113,-3.948862 0.8428,-1.695076 1.26421,-3.674242 1.26421,-5.937498 0,-2.253788 -0.42141,-4.223488 -1.26421,-5.909092 -0.8428,-1.685608 -2.02652,-2.997162 -3.55113,-3.934662 -1.52463,-0.9375 -3.30966,-1.40625 -5.35512,-1.40625 z m 0.0142,3.565342 c 1.32576,0 2.42424,0.35038 3.29545,1.051136 0.8712,0.700756 1.51514,1.633522 1.93181,2.798294 0.42613,1.164776 0.63921,2.447918 0.63921,3.849434 0,1.392048 -0.21308,2.670456 -0.63921,3.835228 -0.41667,1.174242 -1.06061,2.116478 -1.93181,2.826704 -0.87121,0.710228 -1.96969,1.065342 -3.29545,1.065342 -1.33522,0 -2.44318,-0.355114 -3.32387,-1.065342 -0.87122,-0.710226 -1.51988,-1.652462 -1.94602,-2.826704 -0.41667,-1.164772 -0.625,-2.44318 -0.625,-3.835228 0,-1.401516 0.20833,-2.684658 0.625,-3.849434 0.42614,-1.164772 1.0748,-2.097538 1.94602,-2.798294 0.88069,-0.700756 1.98865,-1.051136 3.32387,-1.051136 z m 11.16189,-3.125 z m 7.10228,12.954548 V -7.32959 h -4.24716 v 21.818182 h 4.07671 v -3.551136 h 0.26988 c 0.50189,1.155302 1.28787,2.083334 2.35795,2.784092 1.07955,0.700756 2.43845,1.051134 4.07671,1.051134 1.48674,0 2.78882,-0.3125 3.90625,-0.9375 1.11742,-0.61553 1.9839,-1.53409 2.59943,-2.75568 0.61552,-1.22159 0.92329,-2.732008 0.92329,-4.53125 V -7.32959 h -4.24716 V 6.036888 c 0,1.581438 -0.41193,2.817234 -1.2358,3.707386 -0.82386,0.899622 -1.95549,1.349432 -3.39488,1.349432 -0.98485,0 -1.86079,-0.213068 -2.62784,-0.639204 -0.75758,-0.426136 -1.3589,-1.051136 -1.80398,-1.875 -0.43559,-0.814394 -0.6534,-1.799242 -0.6534,-2.954544 z M 183.88843,-7.32959 Z m 12.25853,-0.440342 c -2.14963,0 -4.00096,0.459282 -5.55399,1.377842 -1.54356,0.928028 -2.73674,2.230114 -3.57954,3.90625 -0.83333,1.685604 -1.25,3.660038 -1.25,5.923298 0,2.234846 0.41667,4.204544 1.25,5.90909 0.8428,1.704546 2.01704,3.035038 3.52272,3.991476 1.51515,0.956438 3.28599,1.434658 5.3125,1.434658 1.23106,0 2.42425,-0.203598 3.57956,-0.610794 1.15529,-0.407198 2.19223,-1.046402 3.11079,-1.917614 0.91856,-0.871212 1.64299,-2.00284 2.1733,-3.394886 0.5303,-1.382576 0.79545,-3.063448 0.79545,-5.042614 V 2.30109 H 188.164 v 3.18182 h 13.18181 c 0,1.117424 -0.22726,2.107008 -0.68181,2.96875 -0.45454,0.871212 -1.09375,1.557766 -1.91762,2.05966 -0.81439,0.501894 -1.77083,0.75284 -2.86932,0.75284 -1.19318,0 -2.23485,-0.29356 -3.125,-0.880682 -0.88068,-0.57765 -1.5625,-1.335226 -2.04546,-2.272726 -0.47348,-0.92803 -0.71022,-1.936554 -0.71022,-3.02557 V 2.599388 c 0,-1.458332 0.25568,-2.698864 0.76705,-3.721592 0.52083,-1.022728 1.24527,-1.803978 2.17329,-2.34375 0.92803,-0.530304 2.01232,-0.795456 3.25284,-0.795456 0.80493,0 1.53883,0.113636 2.20171,0.340912 0.66288,0.236744 1.23579,0.58712 1.71875,1.051136 0.48295,0.464016 0.85228,1.03693 1.10795,1.71875 l 4.01988,-0.724434 c -0.32197,-1.183712 -0.89962,-2.220642 -1.73295,-3.110794 -0.82387,-0.88068 -1.8608,-1.567234 -3.1108,-2.059658 -1.24052,-0.482956 -2.65625,-0.724434 -4.24714,-0.724434 z m 10.33802,0.440342 z m 7.10228,12.954548 V -7.32959 h -4.24716 v 21.818182 h 4.07671 v -3.551136 h 0.26988 c 0.50189,1.155302 1.28787,2.083334 2.35796,2.784092 1.07954,0.700756 2.43844,1.051134 4.0767,1.051134 1.48674,0 2.78882,-0.3125 3.90625,-0.9375 1.11742,-0.61553 1.9839,-1.53409 2.59943,-2.75568 0.61552,-1.22159 0.92329,-2.732008 0.92329,-4.53125 V -7.32959 h -4.24716 V 6.036888 c 0,1.581438 -0.41192,2.817234 -1.23579,3.707386 -0.82387,0.899622 -1.95549,1.349432 -3.39489,1.349432 -0.98484,0 -1.86079,-0.213068 -2.62783,-0.639204 -0.75759,-0.426136 -1.35891,-1.051136 -1.80399,-1.875 -0.43559,-0.814394 -0.6534,-1.799242 -0.6534,-2.954544 z m 15.924,-12.954548 z m 13.03978,21.818182 v -3.40909 h -11.91762 v 3.40909 z m -8.7216,5.227274 h 4.24716 V -0.92334 c 0,-0.823864 0.12311,-1.444126 0.36932,-1.860794 0.2462,-0.4072 0.56345,-0.686554 0.95171,-0.83807 0.39772,-0.142044 0.8286,-0.213066 1.2926,-0.213066 0.34091,0 0.63921,0.023674 0.8949,0.071022 0.25567,0.047348 0.45454,0.085228 0.59659,0.113636 l 0.76704,-3.508522 c -0.24622,-0.0947 -0.59659,-0.189396 -1.05113,-0.284092 -0.45455,-0.104168 -1.02274,-0.160984 -1.70455,-0.170456 -1.11743,-0.01894 -2.1591,0.179924 -3.125,0.596592 -0.96591,0.416668 -1.74716,1.060608 -2.34375,1.93182 -0.5966,0.871212 -0.89489,1.964962 -0.89489,3.28125 z"
       style="fill:#ffffff;fill-opacity:1;fill-rule:nonzero;stroke:none"
       transform="matrix(1.3333333,0,0,-1.3333333,597.33333,995.56055)" /><path
       id="path7"
       d="m 0,127 c 0,3.3137 2.686291,6 6,6 h 292 c 3.31372,0 6,-2.6863 6,-6 V 6 c 0,-3.313705 -2.68628,-6 -6,-6 H 5.999995 C 2.686287,0 0,2.686295 0,6 Z"
       style="fill:#0d99ff;fill-opacity:1;fill-rule:nonzero;stroke:none"
       transform="matrix(1.3333333,0,0,-1.3333333,981.33333,732)" /><path
       id="path8"
       d="m 83.004684,-6.5625 z m 3.196022,0 V 22.52841 H 104.43935 V 18.75 H 90.589912 V 9.886364 H 103.48764 V 6.122162 H 90.589912 V -2.784092 H 104.6098 V -6.5625 Z m 20.025544,0 z m 7.10227,12.954548 V -6.5625 h -4.24716 v 21.818182 h 4.07671 v -3.551136 h 0.26989 c 0.50189,1.155302 1.28788,2.083334 2.35795,2.784092 1.07955,0.700756 2.43845,1.051134 4.0767,1.051134 1.48675,0 2.78883,-0.3125 3.90625,-0.9375 1.11742,-0.61553 1.9839,-1.53409 2.59943,-2.75568 0.61554,-1.22159 0.92331,-2.732008 0.92331,-4.53125 V -6.5625 h -4.24717 V 6.803978 c 0,1.581438 -0.41193,2.817234 -1.23579,3.707386 -0.82387,0.899622 -1.9555,1.349432 -3.39489,1.349432 -0.98485,0 -1.86079,-0.213068 -2.62784,-0.639204 -0.75757,-0.426136 -1.3589,-1.051136 -1.80398,-1.875 -0.4356,-0.814394 -0.65341,-1.799242 -0.65341,-2.954544 z M 129.2525,-6.5625 Z m 13.03978,21.818182 v -3.40909 h -11.91762 v 3.40909 z m -8.7216,5.227274 h 4.24716 V -0.15625 c 0,-0.823864 0.12311,-1.444126 0.36932,-1.860794 0.2462,-0.4072 0.56345,-0.686554 0.95171,-0.83807 0.39772,-0.142044 0.8286,-0.213066 1.2926,-0.213066 0.34091,0 0.63921,0.023674 0.8949,0.071022 0.25568,0.047348 0.45454,0.085228 0.59659,0.113636 L 142.69,-6.392044 c -0.24621,-0.0947 -0.59659,-0.189396 -1.05113,-0.284092 -0.45454,-0.104168 -1.02274,-0.160984 -1.70454,-0.170456 -1.11744,-0.01894 -2.15911,0.179924 -3.125,0.596592 -0.96592,0.416668 -1.74717,1.060608 -2.34375,1.93182 -0.59661,0.871212 -0.8949,1.964962 -0.8949,3.28125 z M 143.25531,-6.5625 Z m 2.85512,0 v 21.818182 h 4.24716 V -6.5625 Z m 2.14488,25.18466 c -0.73863,0 -1.37311,0.246212 -1.90341,0.738638 -0.52083,0.501894 -0.78125,1.098484 -0.78125,1.789772 0,0.700758 0.26042,1.297348 0.78125,1.789772 0.5303,0.501892 1.16478,0.75284 1.90341,0.75284 0.73863,0 1.36838,-0.250948 1.88921,-0.75284 0.5303,-0.492424 0.79545,-1.089014 0.79545,-1.789772 0,-0.691288 -0.26515,-1.287878 -0.79545,-1.789772 -0.52083,-0.492426 -1.15058,-0.738638 -1.88921,-0.738638 z m 4.08093,-25.18466 z m 13.03978,21.818182 v -3.40909 h -11.91761 v 3.40909 z m -8.7216,5.227274 h 4.24716 V -0.15625 c 0,-0.823864 0.12311,-1.444126 0.36932,-1.860794 0.2462,-0.4072 0.56345,-0.686554 0.95171,-0.83807 0.39772,-0.142044 0.8286,-0.213066 1.2926,-0.213066 0.34092,0 0.63921,0.023674 0.8949,0.071022 0.25568,0.047348 0.45454,0.085228 0.59659,0.113636 l 0.76704,-3.508522 c -0.24621,-0.0947 -0.59659,-0.189396 -1.05113,-0.284092 -0.45454,-0.104168 -1.02274,-0.160984 -1.70454,-0.170456 -1.11744,-0.01894 -2.15911,0.179924 -3.125,0.596592 -0.96592,0.416668 -1.74717,1.060608 -2.34375,1.93182 -0.59661,0.871212 -0.8949,1.964962 -0.8949,3.28125 z M 166.33905,-6.5625 Z m 5.53978,-8.18182 c -0.63448,0 -1.21213,0.05208 -1.73296,0.15625 -0.52082,0.0947 -0.90908,0.198864 -1.16478,0.3125 l 1.02274,3.480114 c 0.7765,-0.208332 1.46779,-0.298294 2.07385,-0.269886 0.60607,0.02841 1.1411,0.255684 1.60512,0.68182 0.47348,0.426136 0.89015,1.122158 1.25,2.088066 l 0.52557,1.448864 -7.98295,22.102274 h 4.54545 l 5.52556,-16.931818 h 0.22728 l 5.52556,16.931818 h 4.55966 L 178.86746,-9.47443 c -0.41667,-1.136364 -0.94697,-2.097542 -1.59091,-2.883526 -0.64394,-0.795452 -1.41098,-1.392044 -2.30113,-1.789772 -0.89015,-0.397728 -1.92235,-0.596592 -3.09659,-0.596592 z"
       style="fill:#ffffff;fill-opacity:1;fill-rule:nonzero;stroke:none"
       transform="matrix(1.3333333,0,0,-1.3333333,1002.6667,655.25)" /><path
       id="path9"
       d="m 158.85109,149.78728 c 0.59293,0.57856 0.60454,1.52824 0.026,2.12115 -0.57857,0.59293 -1.52824,0.60454 -2.12116,0.026 l 2.09519,-2.14712 z m -52.0525,-46.6019 c -0.59291,-0.57857 -0.60454,-1.52825 -0.026,-2.12116 0.57857,-0.59291 1.52824,-0.60453 2.12116,-0.026 l -2.0952,2.14713 z M 51.004894,49.038254 c 0.592911,0.578575 0.604534,1.528251 0.02596,2.121162 -0.578571,0.592911 -1.528248,0.604538 -2.121162,0.02596 l 2.095199,-2.147125 z M 6.084121,16.605576 C 5.505548,17.198486 4.370269,16.909134 4.146078,16.111618 L 0.541245,3.288162 C 0.317054,2.490646 1.135279,1.652145 1.938043,1.85675 l 12.907858,3.289856 c 0.802763,0.20459 1.119818,1.332459 0.541245,1.92537 z M 156.7559,151.9344 l -49.95731,-48.74902 2.0952,-2.14713 49.9573,48.74903 z M 48.909695,51.185379 8.614472,11.864746 10.709668,9.717606 51.004894,49.038254 Z"
       style="fill:#b3b3b3;fill-opacity:1;fill-rule:nonzero;stroke:none"
       transform="matrix(1.3333333,0,0,-1.3333333,470.79769,552.81575)" /><path
       id="path10"
       d="M 0.415062,-3.980103 Z M 11.93779,5.914783 9.62813,5.505693 C 9.531539,5.801147 9.37813,6.082397 9.167903,6.349443 8.963358,6.616489 8.684949,6.835239 8.332676,7.005693 7.980403,7.176148 7.540062,7.261375 7.011653,7.261375 6.290062,7.261375 5.687789,7.099443 5.204835,6.775579 4.72188,6.457397 4.480403,6.045465 4.480403,5.539783 c 0,-0.4375 0.161932,-0.789772 0.485795,-1.056818 C 5.290062,4.215919 5.812789,3.997169 6.53438,3.826715 L 8.613926,3.349443 c 1.204545,-0.27841 2.102273,-0.707386 2.693182,-1.286932 0.590909,-0.579546 0.886364,-1.332386 0.886364,-2.258523 0,-0.784091 -0.227273,-1.482955 -0.681819,-2.096591 C 11.06279,-2.900557 10.434949,-3.377831 9.62813,-3.724421 8.826994,-4.071011 7.898017,-4.244307 6.841198,-4.244307 c -1.465909,0 -2.661931,0.3125 -3.588068,0.9375 -0.926136,0.630682 -1.494318,1.525568 -1.704545,2.684658 l 2.463068,0.375 c 0.153409,-0.642045 0.46875,-1.12784 0.946023,-1.457386 0.477272,-0.323864 1.099431,-0.485796 1.866477,-0.485796 0.835227,0 1.502841,0.173296 2.002841,0.519888 0.5,0.352272 0.75,0.781249 0.75,1.286931 0,0.409091 -0.153409,0.752841 -0.460227,1.03125 C 8.81563,0.926147 8.352562,1.136374 7.727562,1.278419 L 5.511653,1.764215 c -1.221591,0.27841 -2.125,0.721592 -2.710227,1.329546 -0.579546,0.607954 -0.869319,1.37784 -0.869319,2.309658 0,0.772728 0.215909,1.448864 0.647728,2.02841 0.431818,0.579545 1.028409,1.03125 1.789772,1.355114 0.761364,0.329545 1.633523,0.494318 2.616478,0.494318 1.414773,0 2.528409,-0.306818 3.340909,-0.920454 0.8125,-0.607955 1.349432,-1.423296 1.610796,-2.446024 z m 0.888459,-9.894886 z m 7.227273,-0.264204 c -1.267046,0 -2.357954,0.286932 -3.272728,0.860795 -0.909091,0.579545 -1.607954,1.377841 -2.09659,2.394887 -0.488637,1.017046 -0.732955,2.181818 -0.732955,3.494318 0,1.329546 0.25,2.50284 0.75,3.519886 0.5,1.022727 1.204546,1.821023 2.113637,2.394887 0.90909,0.573863 1.980114,0.860795 3.213068,0.860795 0.994318,0 1.880682,-0.184659 2.659092,-0.553978 0.778408,-0.363636 1.406248,-0.874999 1.883522,-1.53409 0.482954,-0.65909 0.769884,-1.428978 0.860794,-2.30966 h -2.480114 c -0.136362,0.613638 -0.448862,1.142046 -0.9375,1.585228 -0.482954,0.443182 -1.13068,0.664772 -1.94318,0.664772 -0.710228,0 -1.332388,-0.1875 -1.866478,-0.5625 C 17.67568,6.201715 17.263748,5.673307 16.968294,4.985807 16.67284,4.303989 16.525112,3.497169 16.525112,2.565351 c 0,-0.954545 0.144886,-1.778408 0.43466,-2.47159 0.289774,-0.693182 0.698864,-1.230114 1.227272,-1.610796 0.53409,-0.380682 1.161932,-0.571022 1.883524,-0.571022 0.482954,0 0.920454,0.088068 1.3125,0.264204 0.397726,0.181818 0.730112,0.440342 0.997158,0.775568 0.272728,0.335228 0.463068,0.738638 0.571022,1.210228 h 2.480114 c -0.09091,-0.84659 -0.366478,-1.602272 -0.826704,-2.267046 -0.460226,-0.664773 -1.076704,-1.1875 -1.849432,-1.568182 -0.767046,-0.380682 -1.667614,-0.571022 -2.701704,-0.571022 z m 5.933914,0.264204 z m 7.355112,-0.264204 c -1.289772,0 -2.400566,0.275568 -3.332384,0.826704 -0.926138,0.556818 -1.642046,1.338068 -2.147728,2.34375 -0.5,1.011364 -0.75,2.196024 -0.75,3.553978 0,1.34091 0.25,2.522728 0.75,3.545454 0.505682,1.022727 1.210226,1.821023 2.113636,2.394887 0.909092,0.573863 1.971592,0.860795 3.187502,0.860795 0.738636,0 1.454544,-0.122159 2.147728,-0.366478 0.69318,-0.244317 1.315338,-0.62784 1.866474,-1.150568 C 37.728912,7.241488 38.163574,6.562511 38.481754,5.727283 38.799938,4.897738 38.95903,3.889215 38.95903,2.701715 V 1.798307 H 28.552778 v 1.90909 h 7.90909 c 0,0.670454 -0.136364,1.264204 -0.409092,1.78125 -0.272728,0.522728 -0.65625,0.93466 -1.150566,1.235796 -0.488636,0.301136 -1.0625,0.451704 -1.721592,0.451704 -0.715908,0 -1.34091,-0.176136 -1.875,-0.528408 C 30.777208,6.301147 30.368118,5.846601 30.078346,5.284101 29.794256,4.727283 29.65221,4.122171 29.65221,3.468761 V 1.977283 c 0,-0.875 0.153408,-1.619318 0.460226,-2.232954 0.3125,-0.613636 0.74716,-1.082386 1.303978,-1.40625 0.556818,-0.318182 1.207384,-0.477272 1.951704,-0.477272 0.482956,0 0.923298,0.068182 1.321022,0.204544 0.397728,0.142046 0.741478,0.352273 1.03125,0.630682 0.289776,0.27841 0.511364,0.62216 0.664772,1.03125 l 2.411934,-0.434658 c -0.19318,-0.710228 -0.539772,-1.332387 -1.039772,-1.866478 -0.49432,-0.528409 -1.116478,-0.940341 -1.866478,-1.235796 -0.74432,-0.289772 -1.59375,-0.434658 -2.548298,-0.434658 z m 6.274826,0.264204 z m 4.261364,7.772728 v -7.772728 h -2.548294 v 13.09091 h 2.446022 V 6.980125 h 0.16193 c 0.301136,0.693181 0.772728,1.249999 1.414772,1.670454 0.647728,0.420455 1.46307,0.630682 2.446026,0.630682 0.892044,0 1.673294,-0.1875 2.34375,-0.5625 0.670452,-0.369319 1.190338,-0.920455 1.559658,-1.653409 0.36932,-0.732955 0.553978,-1.639205 0.553978,-2.718751 v -8.326704 h -2.548298 v 8.019886 c 0,0.948864 -0.247158,1.690342 -0.741477,2.224432 -0.494317,0.539774 -1.173295,0.80966 -2.036931,0.80966 -0.590908,0 -1.116478,-0.127842 -1.576706,-0.383524 C 44.898624,6.434669 44.53783,6.059669 44.270782,5.565351 44.009418,5.076715 43.878738,4.485807 43.878738,3.792625 Z m 9.626385,-7.772728 z m 7.355114,-0.264204 c -1.289772,0 -2.400566,0.275568 -3.332386,0.826704 -0.926136,0.556818 -1.642048,1.338068 -2.147728,2.34375 -0.5,1.011364 -0.75,2.196024 -0.75,3.553978 0,1.34091 0.25,2.522728 0.75,3.545454 0.50568,1.022727 1.210228,1.821023 2.113636,2.394887 0.909092,0.573863 1.971592,0.860795 3.1875,0.860795 0.738636,0 1.454548,-0.122159 2.147728,-0.366478 0.69318,-0.244317 1.315338,-0.62784 1.866478,-1.150568 0.55114,-0.522727 0.985794,-1.201704 1.303978,-2.036932 0.318184,-0.829545 0.477272,-1.838068 0.477272,-3.025568 V 1.798307 h -10.40625 v 1.90909 h 7.909092 c 0,0.670454 -0.136364,1.264204 -0.409092,1.78125 -0.272728,0.522728 -0.65625,0.93466 -1.15057,1.235796 -0.488636,0.301136 -1.0625,0.451704 -1.721592,0.451704 -0.715908,0 -1.340904,-0.176136 -1.874996,-0.528408 C 58.294899,6.301147 57.885807,5.846601 57.596031,5.284101 57.311939,4.727283 57.169895,4.122171 57.169895,3.468761 V 1.977283 c 0,-0.875 0.153408,-1.619318 0.460228,-2.232954 0.3125,-0.613636 0.747158,-1.082386 1.303978,-1.40625 0.55682,-0.318182 1.207386,-0.477272 1.951702,-0.477272 0.482956,0 0.923298,0.068182 1.321026,0.204544 0.397728,0.142046 0.741478,0.352273 1.03125,0.630682 0.289772,0.27841 0.511364,0.62216 0.664772,1.03125 l 2.41193,-0.434658 c -0.193184,-0.710228 -0.539772,-1.332387 -1.039772,-1.866478 -0.494316,-0.528409 -1.116478,-0.940341 -1.866478,-1.235796 -0.74432,-0.289772 -1.59375,-0.434658 -2.548294,-0.434658 z m 6.274826,0.264204 z m 3.392044,-0.161932 c -0.465904,0 -0.866478,0.164773 -1.201706,0.494318 -0.335228,0.335228 -0.502838,0.738638 -0.502838,1.210228 0,0.46591 0.16761,0.863636 0.502838,1.193182 0.335228,0.335226 0.735802,0.50284 1.201706,0.50284 0.465912,0 0.866478,-0.167614 1.201706,-0.50284 0.335228,-0.329546 0.502838,-0.727272 0.502838,-1.193182 0,-0.3125 -0.07954,-0.599432 -0.238632,-0.860796 -0.153412,-0.255682 -0.357956,-0.460226 -0.61364,-0.613636 -0.255684,-0.15341 -0.539772,-0.230114 -0.852272,-0.230114 z m 2.94883,0.161932 z m 5.522728,-0.289772 c -0.829544,0 -1.579544,0.153408 -2.25,0.460226 -0.670456,0.3125 -1.201706,0.764205 -1.59375,1.355114 -0.38636,0.59091 -0.579544,1.315342 -0.579544,2.173296 0,0.738636 0.142044,1.34659 0.426132,1.823864 0.284096,0.477272 0.667618,0.855113 1.150574,1.133522 0.482948,0.27841 1.02272,0.488636 1.619316,0.630682 0.596588,0.142046 1.204544,0.25 1.82386,0.323864 0.784096,0.09091 1.420456,0.164772 1.909096,0.22159 0.48864,0.0625 0.84375,0.161932 1.065338,0.298296 0.221596,0.136364 0.33239,0.357954 0.33239,0.664772 v 0.05966 c 0,0.744318 -0.210228,1.321024 -0.630684,1.730114 -0.414772,0.40909 -1.034096,0.613636 -1.857956,0.613636 -0.857956,0 -1.534096,-0.190341 -2.028412,-0.571022 -0.488632,-0.375 -0.826698,-0.792614 -1.014198,-1.252842 l -2.39489,0.545454 c 0.284096,0.795455 0.698868,1.4375 1.244316,1.926137 0.55114,0.494319 1.184662,0.852274 1.900574,1.073865 0.715904,0.227272 1.46875,0.340908 2.258522,0.340908 0.522728,0 1.076698,-0.0625 1.661926,-0.1875 0.590912,-0.119319 1.142052,-0.340909 1.653412,-0.664772 0.517044,-0.323864 0.940338,-0.786933 1.26989,-1.389206 0.329544,-0.59659 0.494316,-1.372158 0.494316,-2.326704 v -8.693182 h -2.48864 v 1.789772 h -0.102272 c -0.164772,-0.329545 -0.411926,-0.653408 -0.741478,-0.97159 -0.329544,-0.318182 -0.752838,-0.582386 -1.269882,-0.792614 -0.517052,-0.210226 -1.136368,-0.31534 -1.857956,-0.31534 z m 0.553978,2.045454 c 0.704544,0 1.306816,0.139204 1.806816,0.417614 0.505684,0.27841 0.889206,0.642046 1.150566,1.090908 0.267052,0.454546 0.400574,0.940341 0.400574,1.457387 V 2.428989 C 82.819687,2.338079 82.643547,2.252853 82.382187,2.173307 82.126503,2.099443 81.833893,2.034101 81.504349,1.977283 81.174797,1.926147 80.853775,1.877851 80.541275,1.832397 80.228775,1.792625 79.967415,1.758535 79.757187,1.730125 79.262871,1.667625 78.811165,1.562511 78.402077,1.414783 77.998665,1.267057 77.674797,1.053989 77.430481,0.775579 c -0.23864,-0.272728 -0.357956,-0.636364 -0.357956,-1.09091 0,-0.630681 0.232956,-1.107954 0.698868,-1.431818 0.465904,-0.318182 1.059654,-0.477272 1.78125,-0.477272 z m 7.131355,-1.755682 z m 6.61364,-0.255682 c -1.056816,0 -2,0.269886 -2.829552,0.80966 -0.82386,0.545454 -1.471588,1.321022 -1.943176,2.326704 -0.465912,1.011364 -0.698868,2.224432 -0.698868,3.639204 0,1.414774 0.235794,2.625 0.70739,3.630682 0.477272,1.005682 1.130676,1.775568 1.960228,2.309659 0.829544,0.534091 1.769882,0.801137 2.821022,0.801137 0.8125,0 1.465912,-0.136364 1.960228,-0.409091 0.5,-0.267045 0.88636,-0.579545 1.159088,-0.9375 0.278412,-0.357955 0.494324,-0.673296 0.647728,-0.946023 h 0.153412 v 6.485796 h 2.548294 V -3.980103 h -2.48864 v 2.036932 h -0.213066 c -0.153404,-0.27841 -0.375,-0.596591 -0.664772,-0.954546 -0.284096,-0.357954 -0.67614,-0.670454 -1.17614,-0.9375 -0.5,-0.267045 -1.147728,-0.400568 -1.943176,-0.400568 z m 0.5625,2.173296 c 0.732948,0 1.352264,0.193182 1.857948,0.579546 0.511368,0.392046 0.897736,0.934658 1.159096,1.62784 0.267044,0.693182 0.400566,1.5 0.400566,2.420454 0,0.909092 -0.130684,1.704546 -0.392044,2.386364 -0.26136,0.681818 -0.644882,1.213068 -1.150566,1.59375 -0.505684,0.380682 -1.130684,0.571023 -1.875,0.571023 -0.767052,0 -1.406258,-0.198863 -1.917618,-0.596591 -0.51136,-0.397726 -0.897728,-0.94034 -1.159088,-1.62784 -0.255684,-0.6875 -0.383522,-1.463068 -0.383522,-2.326706 0,-0.875 0.130684,-1.661932 0.392044,-2.360794 0.26136,-0.698864 0.647728,-1.252842 1.159088,-1.661932 0.517044,-0.40341 1.153412,-0.605114 1.909096,-0.605114 z m 7.391292,-1.917614 z m 6.61364,-0.255682 c -1.05681,0 -2,0.269886 -2.82955,0.80966 -0.82386,0.545454 -1.47159,1.321022 -1.94317,2.326704 -0.46592,1.011364 -0.69887,2.224432 -0.69887,3.639204 0,1.414774 0.23579,2.625 0.70739,3.630682 0.47727,1.005682 1.13067,1.775568 1.96023,2.309659 0.82954,0.534091 1.76988,0.801137 2.82102,0.801137 0.8125,0 1.46591,-0.136364 1.96023,-0.409091 0.5,-0.267045 0.88636,-0.579545 1.15908,-0.9375 0.27842,-0.357955 0.49433,-0.673296 0.64773,-0.946023 h 0.15341 v 6.485796 h 2.5483 V -3.980103 h -2.48864 v 2.036932 h -0.21307 c -0.1534,-0.27841 -0.375,-0.596591 -0.66477,-0.954546 -0.2841,-0.357954 -0.67614,-0.670454 -1.17614,-0.9375 -0.5,-0.267045 -1.14773,-0.400568 -1.94318,-0.400568 z m 0.5625,2.173296 c 0.73295,0 1.35227,0.193182 1.85795,0.579546 0.51137,0.392046 0.89774,0.934658 1.1591,1.62784 0.26704,0.693182 0.40056,1.5 0.40056,2.420454 0,0.909092 -0.13068,1.704546 -0.39204,2.386364 -0.26136,0.681818 -0.64488,1.213068 -1.15057,1.59375 -0.50568,0.380682 -1.13068,0.571023 -1.875,0.571023 -0.76705,0 -1.40625,-0.198863 -1.91761,-0.596591 -0.51136,-0.397726 -0.89773,-0.94034 -1.15909,-1.62784 -0.25569,-0.6875 -0.38352,-1.463068 -0.38352,-2.326706 0,-0.875 0.13068,-1.661932 0.39204,-2.360794 0.26136,-0.698864 0.64773,-1.252842 1.15909,-1.661932 0.51704,-0.40341 1.15341,-0.605114 1.90909,-0.605114 z m 8.21162,-1.917614 z m 11.0625,0 v -2.164772 h -11.08806 v 2.164772 z m -0.47944,0 z m 11.52273,9.894886 -2.30966,-0.40909 c -0.0966,0.295454 -0.25,0.576704 -0.46022,0.84375 -0.20455,0.267046 -0.48296,0.485796 -0.83524,0.65625 -0.35228,0.170455 -0.79262,0.255682 -1.32101,0.255682 -0.72161,0 -1.32387,-0.161932 -1.80683,-0.485796 -0.48295,-0.318182 -0.72442,-0.730114 -0.72442,-1.235796 0,-0.4375 0.16192,-0.789772 0.48579,-1.056818 0.32387,-0.267046 0.84659,-0.485796 1.56818,-0.65625 l 2.07954,-0.477272 c 1.20455,-0.27841 2.10228,-0.707386 2.69319,-1.286932 0.5909,-0.579546 0.88636,-1.332386 0.88636,-2.258523 0,-0.784091 -0.22727,-1.482955 -0.68181,-2.096591 -0.44887,-0.607954 -1.07671,-1.085228 -1.88353,-1.431818 -0.80113,-0.34659 -1.73012,-0.519886 -2.78693,-0.519886 -1.46591,0 -2.66194,0.3125 -3.58807,0.9375 -0.92613,0.630682 -1.49433,1.525568 -1.70455,2.684658 l 2.46308,0.375 c 0.15339,-0.642045 0.46873,-1.12784 0.94601,-1.457386 0.47728,-0.323864 1.09944,-0.485796 1.86649,-0.485796 0.83522,0 1.50284,0.173296 2.00284,0.519888 0.5,0.352272 0.75,0.781249 0.75,1.286931 0,0.409091 -0.15342,0.752841 -0.46024,1.03125 -0.30113,0.278409 -0.76419,0.488636 -1.38919,0.630681 l -2.21591,0.485796 c -1.22161,0.27841 -2.12502,0.721592 -2.71024,1.329546 -0.57954,0.607954 -0.86931,1.37784 -0.86931,2.309658 0,0.772728 0.21591,1.448864 0.64772,2.02841 0.43183,0.579545 1.02842,1.03125 1.78978,1.355114 0.76137,0.329545 1.63352,0.494318 2.61647,0.494318 1.41478,0 2.52842,-0.306818 3.34092,-0.920454 0.8125,-0.607955 1.34942,-1.423296 1.61079,-2.446024 z m 0.88844,-9.894886 z m 3.32387,-4.909091 c -0.38069,0 -0.72728,0.03125 -1.03978,0.093751 -0.3125,0.056818 -0.54546,0.119318 -0.69887,0.1875 l 0.61365,2.088068 c 0.4659,-0.125 0.88068,-0.178978 1.24431,-0.161932 0.36363,0.017046 0.68466,0.153408 0.96307,0.40909 0.28409,0.255682 0.53409,0.673296 0.75,1.252842 l 0.31534,0.869318 -4.78976,13.261364 h 2.72726 l 3.31534,-10.159092 h 0.13637 l 3.31533,10.159092 h 2.7358 l -5.39488,-14.838069 c -0.25,-0.681819 -0.56818,-1.258523 -0.95455,-1.730113 -0.38637,-0.477274 -0.84659,-0.835228 -1.38067,-1.073864 -0.53411,-0.238637 -1.15342,-0.357955 -1.85796,-0.357955 z m 9.81389,4.909091 z m 11.52272,9.894886 -2.30965,-0.40909 c -0.0966,0.295454 -0.25001,0.576704 -0.46023,0.84375 -0.20455,0.267046 -0.48294,0.485796 -0.83522,0.65625 -0.35228,0.170455 -0.79262,0.255682 -1.32103,0.255682 -0.72159,0 -1.32386,-0.161932 -1.80681,-0.485796 -0.48296,-0.318182 -0.72444,-0.730114 -0.72444,-1.235796 0,-0.4375 0.16192,-0.789772 0.48579,-1.056818 0.32387,-0.267046 0.84659,-0.485796 1.56819,-0.65625 l 2.07955,-0.477272 c 1.20454,-0.27841 2.10226,-0.707386 2.69317,-1.286932 0.59091,-0.579546 0.88637,-1.332386 0.88637,-2.258523 0,-0.784091 -0.22728,-1.482955 -0.68182,-2.096591 -0.44887,-0.607954 -1.07671,-1.085228 -1.88352,-1.431818 -0.80113,-0.34659 -1.73012,-0.519886 -2.78694,-0.519886 -1.4659,0 -2.66193,0.3125 -3.58806,0.9375 -0.92613,0.630682 -1.49432,1.525568 -1.70454,2.684658 l 2.46306,0.375 c 0.15341,-0.642045 0.46875,-1.12784 0.94603,-1.457386 0.47728,-0.323864 1.09942,-0.485796 1.86647,-0.485796 0.83522,0 1.50283,0.173296 2.00283,0.519888 0.5,0.352272 0.75,0.781249 0.75,1.286931 0,0.409091 -0.15341,0.752841 -0.46022,1.03125 -0.30113,0.278409 -0.7642,0.488636 -1.3892,0.630681 l -2.21591,0.485796 c -1.22159,0.27841 -2.125,0.721592 -2.71022,1.329546 -0.57955,0.607954 -0.86933,1.37784 -0.86933,2.309658 0,0.772728 0.21591,1.448864 0.64774,2.02841 0.43181,0.579545 1.02839,1.03125 1.78976,1.355114 0.76137,0.329545 1.63353,0.494318 2.61649,0.494318 1.41476,0 2.52839,-0.306818 3.34089,-0.920454 0.8125,-0.607955 1.34943,-1.423296 1.6108,-2.446024 z m 0.88847,-9.894886 z m 7.82387,13.09091 V 7.065352 h -7.15057 v 2.045455 z m -5.23296,3.136363 h 2.5483 V -0.136353 c 0,-0.494318 0.0739,-0.866478 0.22159,-1.116478 0.14772,-0.244318 0.33807,-0.41193 0.57103,-0.50284 0.23863,-0.085226 0.49716,-0.12784 0.77555,-0.12784 0.20455,0 0.38353,0.014204 0.53695,0.042612 0.15339,0.02841 0.27272,0.051137 0.35795,0.068182 l 0.46022,-2.105114 c -0.14772,-0.056818 -0.35795,-0.113636 -0.63067,-0.170454 -0.27274,-0.0625 -0.61365,-0.09659 -1.02274,-0.102272 -0.67046,-0.011364 -1.29546,0.107954 -1.875,0.357954 -0.57954,0.25 -1.04829,0.636364 -1.40625,1.159091 -0.35796,0.522727 -0.53693,1.178977 -0.53693,1.96875 z m 5.74216,-16.227273 z m 7.35512,-0.264204 c -1.28978,0 -2.40057,0.275568 -3.3324,0.826704 -0.92613,0.556818 -1.64203,1.338068 -2.14772,2.34375 -0.5,1.011364 -0.75,2.196024 -0.75,3.553978 0,1.34091 0.25,2.522728 0.75,3.545454 0.50569,1.022727 1.21024,1.821023 2.11363,2.394887 0.90911,0.573863 1.97161,0.860795 3.1875,0.860795 0.73864,0 1.45455,-0.122159 2.14774,-0.366478 0.69318,-0.244317 1.31534,-0.62784 1.86647,-1.150568 0.55113,-0.522727 0.98579,-1.201704 1.30399,-2.036932 0.31817,-0.829545 0.47726,-1.838068 0.47726,-3.025568 V 1.798307 h -10.40625 v 1.90909 h 7.90909 c 0,0.670454 -0.13637,1.264204 -0.40909,1.78125 -0.27272,0.522728 -0.65625,0.93466 -1.15056,1.235796 -0.48863,0.301136 -1.0625,0.451704 -1.7216,0.451704 -0.7159,0 -1.3409,-0.176136 -1.875,-0.528408 -0.5284,-0.346592 -0.93749,-0.801138 -1.22727,-1.363638 -0.28408,-0.556818 -0.42613,-1.16193 -0.42613,-1.81534 V 1.977283 c 0,-0.875 0.15341,-1.619318 0.46022,-2.232954 0.3125,-0.613636 0.74716,-1.082386 1.30397,-1.40625 0.55683,-0.318182 1.2074,-0.477272 1.95171,-0.477272 0.48295,0 0.92331,0.068182 1.32103,0.204544 0.39772,0.142046 0.74147,0.352273 1.03125,0.630682 0.28978,0.27841 0.51137,0.62216 0.66476,1.03125 l 2.41194,-0.434658 c -0.19319,-0.710228 -0.53978,-1.332387 -1.03978,-1.866478 -0.4943,-0.528409 -1.11647,-0.940341 -1.86647,-1.235796 -0.74432,-0.289772 -1.59375,-0.434658 -2.54829,-0.434658 z m 6.27483,0.264204 z m 1.71307,0 v 13.09091 h 2.44601 V 6.980125 h 0.16194 c 0.27273,0.721591 0.71875,1.28409 1.33806,1.687499 0.61933,0.409091 1.36081,0.613637 2.22444,0.613637 0.875,0 1.60796,-0.204546 2.19886,-0.613637 0.5966,-0.40909 1.03694,-0.97159 1.32103,-1.687499 h 0.13636 c 0.3125,0.698863 0.80967,1.255681 1.49148,1.670454 0.6818,0.420455 1.4943,0.630682 2.4375,0.630682 1.1875,0 2.15625,-0.372159 2.90625,-1.116478 0.75569,-0.744317 1.13352,-1.866476 1.13352,-3.366476 v -8.77841 h -2.54829 v 8.539772 c 0,0.886364 -0.24148,1.52841 -0.72444,1.926138 -0.48296,0.397726 -1.05966,0.59659 -1.73012,0.59659 -0.82954,0 -1.47442,-0.255682 -1.93465,-0.767046 -0.46023,-0.505682 -0.69035,-1.15625 -0.69035,-1.951704 v -8.34375 h -2.53976 v 8.701704 c 0,0.710228 -0.22159,1.28125 -0.66478,1.713068 -0.44318,0.431819 -1.01988,0.647728 -1.73011,0.647728 -0.48295,0 -0.92898,-0.12784 -1.33807,-0.383522 -0.40341,-0.25 -0.73012,-0.599432 -0.98012,-1.048296 -0.24431,-0.448864 -0.36647,-0.96875 -0.36647,-1.55966 v -8.071022 z m 19.04184,0 z m 2.45454,7.244318 c 0,2.136364 0.28125,4.102273 0.84375,5.897728 0.5625,1.795455 1.38353,3.451705 2.46308,4.96875 h 2.33522 c -0.42046,-0.5625 -0.8125,-1.252841 -1.17614,-2.071023 -0.36363,-0.818182 -0.68182,-1.715909 -0.95454,-2.693181 -0.27272,-0.971591 -0.48579,-1.980115 -0.63921,-3.02557 -0.15341,-1.039772 -0.23011,-2.06534 -0.23011,-3.076704 0,-1.352272 0.13353,-2.72159 0.40057,-4.107954 0.26704,-1.386364 0.62784,-2.673296 1.08238,-3.860796 0.45455,-1.1875 0.96024,-2.15625 1.51705,-2.90625 h -2.33522 c -1.07955,1.517046 -1.90058,3.173296 -2.46308,4.96875 -0.5625,1.795454 -0.84375,3.764204 -0.84375,5.90625 z m 6.15978,-7.244318 z m 6.61363,7.244318 c 0,-2.142046 -0.28125,-4.110796 -0.84375,-5.90625 -0.5625,-1.795454 -1.38351,-3.451704 -2.46306,-4.96875 h -2.33523 c 0.42045,0.5625 0.8125,1.252841 1.17613,2.071023 0.36363,0.818181 0.68182,1.713069 0.95456,2.684659 0.27272,0.977274 0.48579,1.988636 0.63919,3.034091 0.15341,1.045454 0.23012,2.073863 0.23012,3.085227 0,1.346591 -0.13352,2.713068 -0.40056,4.099432 -0.26705,1.386364 -0.62786,2.673296 -1.0824,3.860796 -0.45454,1.1875 -0.96022,2.15625 -1.51704,2.90625 h 2.33523 c 1.07955,-1.517045 1.90056,-3.173295 2.46306,-4.96875 0.5625,-1.795455 0.84375,-3.761364 0.84375,-5.897728 z"
       style="fill:#000000;fill-opacity:0.8;fill-rule:nonzero;stroke:none"
       transform="matrix(1.3333333,0,0,-1.3333333,425.33333,458.02653)" /><path
       id="path11"
       d="m 1.031617,151.9563 c -0.601399,0.56975 -1.5508,0.54408 -2.120546,-0.0573 -0.569746,-0.6014 -0.544087,-1.5508 0.057312,-2.12055 l 2.063234,2.17786 z m 49.394069,-50.92688 c 0.601398,-0.56975 1.5508,-0.54408 2.120544,0.0573 0.569748,0.6014 0.544087,1.55081 -0.05731,2.12055 l -2.063232,-2.17786 z M 108.89379,51.19191 c -0.59292,0.578575 -1.54259,0.566948 -2.12116,-0.02596 -0.57858,-0.592918 -0.56695,-1.542587 0.026,-2.121162 l 2.0952,2.147125 z M 142.41635,7.078506 C 141.83778,6.48558 142.15483,5.357727 142.9576,5.153122 l 12.90785,-3.289841 c 0.80276,-0.204605 1.621,0.633896 1.3968,1.431412 l -3.60482,12.823456 c -0.2242,0.797516 -1.35949,1.086868 -1.93805,0.493957 z M -1.031617,149.77844 50.425686,101.02942 52.488918,103.20728 1.031617,151.9563 Z M 106.79859,49.044785 147.09383,9.724136 l 2.0952,2.147126 -40.29524,39.320648 z"
       style="fill:#b3b3b3;fill-opacity:1;fill-rule:nonzero;stroke:none"
       transform="matrix(1.3333333,0,0,-1.3333333,876.13102,552.82446)" /><path
       id="path12"
       d="M 0.192406,-3.9375 Z M 11.715134,5.957386 9.405474,5.548296 C 9.308883,5.84375 9.155474,6.125 8.945247,6.392046 8.740702,6.659092 8.462293,6.877842 8.11002,7.048296 7.757747,7.218751 7.317406,7.303978 6.788997,7.303978 6.067406,7.303978 5.465133,7.142046 4.982179,6.818182 4.499224,6.5 4.257747,6.088068 4.257747,5.582386 c 0,-0.4375 0.161932,-0.789772 0.485795,-1.056818 C 5.067406,4.258522 5.590133,4.039772 6.311724,3.869318 L 8.39127,3.392046 c 1.204545,-0.27841 2.102273,-0.707386 2.693182,-1.286932 0.590909,-0.579546 0.886364,-1.332386 0.886364,-2.258524 0,-0.78409 -0.227273,-1.482954 -0.681819,-2.09659 -0.448863,-0.607954 -1.076704,-1.085228 -1.883523,-1.431818 -0.801136,-0.34659 -1.730113,-0.519886 -2.786932,-0.519886 -1.465909,0 -2.661932,0.3125 -3.588068,0.9375 -0.926136,0.630682 -1.494318,1.525568 -1.704546,2.684658 l 2.463069,0.375 c 0.153409,-0.642046 0.46875,-1.12784 0.946023,-1.457386 0.477272,-0.323864 1.099431,-0.485796 1.866477,-0.485796 0.835227,0 1.502841,0.173296 2.002841,0.519888 0.5,0.352272 0.75,0.781248 0.75,1.28693 0,0.409092 -0.153409,0.752842 -0.460227,1.03125 C 8.592974,0.96875 8.129906,1.178976 7.504906,1.321022 L 5.288997,1.806818 c -1.221591,0.27841 -2.125,0.721592 -2.710228,1.329546 -0.579545,0.607954 -0.869318,1.37784 -0.869318,2.309658 0,0.772728 0.215909,1.448864 0.647727,2.02841 0.431819,0.579545 1.028409,1.03125 1.789773,1.355114 0.761364,0.329545 1.633523,0.494318 2.616478,0.494318 1.414773,0 2.528409,-0.306818 3.340909,-0.920454 0.8125,-0.607955 1.349432,-1.423296 1.610796,-2.446024 z M 12.603593,-3.9375 Z m 7.227273,-0.264204 c -1.267046,0 -2.357954,0.286932 -3.272728,0.860794 -0.909091,0.579546 -1.607954,1.377842 -2.09659,2.394888 -0.488637,1.017046 -0.732955,2.181818 -0.732955,3.494318 0,1.329546 0.25,2.50284 0.75,3.519886 0.5,1.022727 1.204546,1.821023 2.113637,2.394887 0.90909,0.573863 1.980114,0.860795 3.213068,0.860795 0.994318,0 1.880682,-0.184659 2.659092,-0.553978 0.778408,-0.363636 1.406248,-0.874999 1.883522,-1.53409 0.482954,-0.65909 0.769884,-1.428978 0.860794,-2.30966 h -2.480114 c -0.136362,0.613638 -0.448862,1.142046 -0.9375,1.585228 -0.482954,0.443182 -1.13068,0.664772 -1.94318,0.664772 -0.710228,0 -1.332388,-0.1875 -1.866478,-0.5625 C 17.453024,6.244318 17.041092,5.71591 16.745638,5.02841 16.450184,4.346592 16.302456,3.539772 16.302456,2.607954 c 0,-0.954546 0.144886,-1.778408 0.43466,-2.47159 0.289774,-0.693182 0.698864,-1.230114 1.227272,-1.610796 0.53409,-0.380682 1.161932,-0.571022 1.883524,-0.571022 0.482954,0 0.920454,0.088068 1.3125,0.264204 0.397726,0.181818 0.730112,0.440342 0.997158,0.775568 0.272728,0.335228 0.463068,0.738638 0.571022,1.210228 h 2.480114 C 25.117796,-0.642044 24.842228,-1.397726 24.382002,-2.0625 23.921776,-2.727274 23.305298,-3.25 22.53257,-3.630682 21.765524,-4.011364 20.864956,-4.201704 19.830866,-4.201704 Z M 25.76478,-3.9375 Z m 7.355112,-0.264204 c -1.289772,0 -2.400566,0.275568 -3.332384,0.826704 -0.926138,0.556818 -1.642046,1.338068 -2.147728,2.34375 -0.5,1.011364 -0.75,2.196024 -0.75,3.553978 0,1.34091 0.25,2.522728 0.75,3.545454 0.505682,1.022727 1.210226,1.821023 2.113636,2.394887 0.909092,0.573863 1.971592,0.860795 3.187502,0.860795 0.738636,0 1.454544,-0.122159 2.147728,-0.366478 0.69318,-0.244317 1.315338,-0.62784 1.866474,-1.150568 0.551136,-0.522727 0.985798,-1.201704 1.303978,-2.036932 0.318184,-0.829546 0.477276,-1.838068 0.477276,-3.025568 V 1.84091 H 28.330122 V 3.75 h 7.90909 c 0,0.670454 -0.136364,1.264204 -0.409092,1.78125 -0.272728,0.522728 -0.65625,0.93466 -1.150566,1.235796 -0.488636,0.301136 -1.0625,0.451704 -1.721592,0.451704 -0.715908,0 -1.34091,-0.176136 -1.875,-0.528408 C 30.554552,6.34375 30.145462,5.889204 29.85569,5.326704 29.5716,4.769886 29.429554,4.164774 29.429554,3.511364 V 2.019886 c 0,-0.875 0.153408,-1.619318 0.460226,-2.232954 0.3125,-0.613636 0.74716,-1.082386 1.303978,-1.40625 0.556818,-0.318182 1.207384,-0.477272 1.951704,-0.477272 0.482956,0 0.923298,0.068182 1.321022,0.204544 0.397728,0.142046 0.741478,0.352272 1.03125,0.630682 0.289776,0.27841 0.511364,0.62216 0.664772,1.03125 L 38.57444,-0.664772 C 38.38126,-1.375 38.034668,-1.99716 37.534668,-2.53125 37.040348,-3.05966 36.41819,-3.471592 35.66819,-3.767046 34.92387,-4.056818 34.07444,-4.201704 33.119892,-4.201704 Z m 6.274826,0.264204 z m 4.261364,7.772728 V -3.9375 H 41.107788 V 9.15341 H 43.55381 V 7.022728 h 0.16193 c 0.301136,0.693181 0.772728,1.249999 1.414772,1.670454 0.647728,0.420455 1.46307,0.630682 2.446026,0.630682 0.892044,0 1.673294,-0.1875 2.34375,-0.5625 C 50.59074,8.392045 51.110626,7.840909 51.479946,7.107955 51.849266,6.375 52.033924,5.46875 52.033924,4.389204 V -3.9375 h -2.548298 v 8.019886 c 0,0.948864 -0.247158,1.690342 -0.741478,2.224432 -0.494316,0.539774 -1.173294,0.80966 -2.03693,0.80966 -0.590908,0 -1.116478,-0.127842 -1.576706,-0.383524 C 44.675968,6.477272 44.315174,6.102272 44.048126,5.607954 43.786762,5.119318 43.656082,4.52841 43.656082,3.835228 Z M 53.282467,-3.9375 Z m 7.355114,-0.264204 c -1.289772,0 -2.400566,0.275568 -3.332386,0.826704 -0.926136,0.556818 -1.642048,1.338068 -2.147728,2.34375 -0.5,1.011364 -0.75,2.196024 -0.75,3.553978 0,1.34091 0.25,2.522728 0.75,3.545454 0.50568,1.022727 1.210228,1.821023 2.113636,2.394887 0.909092,0.573863 1.971592,0.860795 3.1875,0.860795 0.738636,0 1.454548,-0.122159 2.147728,-0.366478 0.69318,-0.244317 1.315342,-0.62784 1.866478,-1.150568 0.55114,-0.522727 0.985794,-1.201704 1.303978,-2.036932 0.318184,-0.829546 0.477272,-1.838068 0.477272,-3.025568 V 1.84091 H 55.847809 V 3.75 h 7.909092 c 0,0.670454 -0.136364,1.264204 -0.409092,1.78125 -0.272728,0.522728 -0.65625,0.93466 -1.15057,1.235796 -0.488636,0.301136 -1.0625,0.451704 -1.721592,0.451704 -0.715908,0 -1.340904,-0.176136 -1.874996,-0.528408 C 58.072243,6.34375 57.663151,5.889204 57.373375,5.326704 57.089283,4.769886 56.947239,4.164774 56.947239,3.511364 V 2.019886 c 0,-0.875 0.153408,-1.619318 0.460228,-2.232954 0.3125,-0.613636 0.747158,-1.082386 1.303978,-1.40625 0.55682,-0.318182 1.207386,-0.477272 1.951702,-0.477272 0.482956,0 0.923298,0.068182 1.321026,0.204544 0.397728,0.142046 0.741478,0.352272 1.03125,0.630682 0.289772,0.27841 0.511364,0.62216 0.664772,1.03125 l 2.41193,-0.434658 C 65.898941,-1.375 65.552353,-1.99716 65.052353,-2.53125 c -0.494316,-0.52841 -1.116478,-0.940342 -1.866478,-1.235796 -0.74432,-0.289772 -1.59375,-0.434658 -2.548294,-0.434658 z m 6.274826,0.264204 z m 3.392044,-0.161932 c -0.465904,0 -0.866478,0.164772 -1.201706,0.494318 -0.335228,0.335228 -0.502838,0.738638 -0.502838,1.210228 0,0.46591 0.16761,0.863636 0.502838,1.193182 0.335228,0.335226 0.735802,0.50284 1.201706,0.50284 0.465912,0 0.866478,-0.167614 1.201706,-0.50284 0.335228,-0.329546 0.502838,-0.727272 0.502838,-1.193182 0,-0.3125 -0.07954,-0.599432 -0.238632,-0.860796 -0.153412,-0.255682 -0.357956,-0.460226 -0.61364,-0.613636 -0.255684,-0.15341 -0.539772,-0.230114 -0.852272,-0.230114 z m 2.94883,0.161932 z m 5.522728,-0.289772 c -0.829544,0 -1.579544,0.153408 -2.25,0.460226 -0.670456,0.3125 -1.201706,0.764204 -1.59375,1.355114 -0.386361,0.59091 -0.579544,1.315342 -0.579544,2.173296 0,0.738636 0.142044,1.34659 0.426132,1.823864 0.284096,0.477272 0.667618,0.855112 1.150573,1.133522 0.482949,0.27841 1.022721,0.488636 1.619317,0.630682 0.596588,0.142046 1.204544,0.25 1.82386,0.323864 0.784096,0.09091 1.420456,0.164772 1.909096,0.22159 0.488639,0.0625 0.84375,0.161932 1.065338,0.298296 0.221595,0.136364 0.332389,0.357954 0.332389,0.664772 v 0.05966 c 0,0.744318 -0.210227,1.321024 -0.630683,1.730114 -0.414772,0.40909 -1.034096,0.613636 -1.857956,0.613636 -0.857956,0 -1.534096,-0.190341 -2.028412,-0.571022 C 77.673737,6.315342 77.33567,5.897728 77.14817,5.4375 l -2.394889,0.545454 c 0.284095,0.795454 0.698867,1.4375 1.244316,1.926137 0.55114,0.494319 1.184662,0.852274 1.900573,1.073865 0.715905,0.227272 1.46875,0.340908 2.258523,0.340908 0.522727,0 1.076698,-0.0625 1.661926,-0.1875 0.590912,-0.119319 1.142051,-0.340909 1.653412,-0.664772 0.517044,-0.323864 0.940338,-0.786933 1.269889,-1.389206 0.329545,-0.59659 0.494317,-1.372158 0.494317,-2.326704 V -3.9375 h -2.48864 v 1.789772 h -0.102272 c -0.164772,-0.329546 -0.411927,-0.653408 -0.741478,-0.97159 -0.329544,-0.318182 -0.752838,-0.582386 -1.269882,-0.792614 -0.517052,-0.210226 -1.136368,-0.31534 -1.857956,-0.31534 z m 0.553978,2.045454 c 0.704544,0 1.306816,0.139204 1.806816,0.417614 0.505684,0.27841 0.889206,0.642046 1.150566,1.090908 0.267051,0.454546 0.400574,0.94034 0.400574,1.457386 V 2.471592 C 82.597031,2.380682 82.420891,2.295456 82.159531,2.21591 81.903847,2.142046 81.611237,2.076704 81.281693,2.019886 80.952141,1.96875 80.631119,1.920454 80.318619,1.875 80.006119,1.835228 79.744759,1.801138 79.534531,1.772728 79.040215,1.710228 78.588509,1.605114 78.17942,1.457386 77.776009,1.30966 77.452141,1.096592 77.207825,0.818182 c -0.23864,-0.272728 -0.357956,-0.636364 -0.357956,-1.09091 0,-0.630682 0.232956,-1.107954 0.698868,-1.431818 0.465904,-0.318182 1.059654,-0.477272 1.78125,-0.477272 z M 86.461342,-3.9375 Z m 6.61364,-0.255682 c -1.056816,0 -2,0.269886 -2.829552,0.80966 -0.82386,0.545454 -1.471588,1.321022 -1.943176,2.326704 -0.465912,1.011364 -0.698868,2.224432 -0.698868,3.639204 0,1.414774 0.235794,2.625 0.70739,3.630682 0.477272,1.005682 1.130676,1.775568 1.960228,2.309659 0.829544,0.534091 1.769882,0.801137 2.821022,0.801137 0.8125,0 1.465912,-0.136364 1.960228,-0.409091 0.5,-0.267045 0.88636,-0.579545 1.159088,-0.9375 0.278412,-0.357955 0.494324,-0.673296 0.647728,-0.946023 h 0.153412 v 6.485796 h 2.548294 V -3.9375 h -2.48864 v 2.036932 H 96.85907 c -0.153404,-0.27841 -0.375,-0.596592 -0.664772,-0.954546 -0.284096,-0.357954 -0.67614,-0.670454 -1.17614,-0.9375 -0.5,-0.267046 -1.147728,-0.400568 -1.943176,-0.400568 z m 0.5625,2.173296 c 0.732948,0 1.352264,0.193182 1.857948,0.579546 0.511368,0.392046 0.897736,0.934658 1.159096,1.62784 0.267044,0.693182 0.400566,1.5 0.400566,2.420454 0,0.909092 -0.130684,1.704546 -0.392044,2.386364 -0.26136,0.681818 -0.644882,1.213068 -1.150566,1.59375 -0.505684,0.380682 -1.130684,0.571023 -1.875,0.571023 -0.767052,0 -1.406258,-0.198863 -1.917618,-0.596591 -0.51136,-0.397726 -0.897728,-0.94034 -1.159088,-1.62784 -0.255684,-0.6875 -0.383522,-1.463068 -0.383522,-2.326706 0,-0.875 0.130684,-1.661932 0.392044,-2.360794 0.26136,-0.698864 0.647728,-1.252842 1.159088,-1.661932 0.517044,-0.40341 1.153412,-0.605114 1.909096,-0.605114 z M 101.02878,-3.9375 Z m 6.61364,-0.255682 c -1.05682,0 -2,0.269886 -2.82955,0.80966 -0.82386,0.545454 -1.47159,1.321022 -1.94318,2.326704 -0.46591,1.011364 -0.69887,2.224432 -0.69887,3.639204 0,1.414774 0.2358,2.625 0.70739,3.630682 0.47727,1.005682 1.13068,1.775568 1.96023,2.309659 0.82954,0.534091 1.76988,0.801137 2.82102,0.801137 0.8125,0 1.46591,-0.136364 1.96023,-0.409091 0.5,-0.267045 0.88636,-0.579545 1.15909,-0.9375 0.27841,-0.357955 0.49432,-0.673296 0.64773,-0.946023 h 0.15341 v 6.485796 h 2.54829 V -3.9375 h -2.48864 v 2.036932 h -0.21306 c -0.15341,-0.27841 -0.375,-0.596592 -0.66478,-0.954546 -0.28409,-0.357954 -0.67614,-0.670454 -1.17614,-0.9375 -0.5,-0.267046 -1.14772,-0.400568 -1.94317,-0.400568 z m 0.5625,2.173296 c 0.73295,0 1.35226,0.193182 1.85795,0.579546 0.51136,0.392046 0.89773,0.934658 1.15909,1.62784 0.26705,0.693182 0.40057,1.5 0.40057,2.420454 0,0.909092 -0.13069,1.704546 -0.39205,2.386364 -0.26136,0.681818 -0.64488,1.213068 -1.15056,1.59375 -0.50569,0.380682 -1.13069,0.571023 -1.875,0.571023 -0.76705,0 -1.40626,-0.198863 -1.91762,-0.596591 -0.51136,-0.397726 -0.89773,-0.94034 -1.15909,-1.62784 -0.25568,-0.6875 -0.38352,-1.463068 -0.38352,-2.326706 0,-0.875 0.13068,-1.661932 0.39204,-2.360794 0.26136,-0.698864 0.64773,-1.252842 1.15909,-1.661932 0.51705,-0.40341 1.15341,-0.605114 1.9091,-0.605114 z m 8.21161,-1.917614 z m 11.0625,0 V -6.102272 H 116.39097 V -3.9375 Z m -0.47943,0 z m 7.35511,-0.264204 c -1.28978,0 -2.40058,0.275568 -3.33239,0.826704 -0.92613,0.556818 -1.64204,1.338068 -2.14772,2.34375 -0.5,1.011364 -0.75,2.196024 -0.75,3.553978 0,1.34091 0.25,2.522728 0.75,3.545454 0.50568,1.022727 1.21022,1.821023 2.11364,2.394887 0.90908,0.573863 1.97158,0.860795 3.18749,0.860795 0.73864,0 1.45455,-0.122159 2.14773,-0.366478 0.69319,-0.244317 1.31535,-0.62784 1.86648,-1.150568 0.55113,-0.522727 0.98579,-1.201704 1.30397,-2.036932 0.31819,-0.829546 0.47728,-1.838068 0.47728,-3.025568 V 1.84091 H 129.56494 V 3.75 h 7.90909 c 0,0.670454 -0.13637,1.264204 -0.40909,1.78125 -0.27272,0.522728 -0.65625,0.93466 -1.15057,1.235796 -0.48864,0.301136 -1.0625,0.451704 -1.72159,0.451704 -0.71591,0 -1.34091,-0.176136 -1.875,-0.528408 -0.52841,-0.346592 -0.9375,-0.801138 -1.22728,-1.363638 -0.28409,-0.556818 -0.42613,-1.16193 -0.42613,-1.81534 V 2.019886 c 0,-0.875 0.15341,-1.619318 0.46023,-2.232954 0.3125,-0.613636 0.74716,-1.082386 1.30397,-1.40625 0.55681,-0.318182 1.20739,-0.477272 1.95171,-0.477272 0.48295,0 0.92329,0.068182 1.32101,0.204544 0.39774,0.142046 0.74149,0.352272 1.03125,0.630682 0.28978,0.27841 0.51137,0.62216 0.66478,1.03125 l 2.41193,-0.434658 C 139.61607,-1.375 139.26948,-1.99716 138.76948,-2.53125 138.27516,-3.05966 137.653,-3.471592 136.903,-3.767046 c -0.74431,-0.289772 -1.59375,-0.434658 -2.54829,-0.434658 z m 6.27481,0.264204 z m 4.26136,7.772728 V -3.9375 h -2.54829 V 9.15341 h 2.44601 V 7.022728 h 0.16195 c 0.30113,0.693181 0.77272,1.249999 1.41476,1.670454 0.64772,0.420455 1.46307,0.630682 2.44603,0.630682 0.89204,0 1.67329,-0.1875 2.34375,-0.5625 0.67046,-0.369319 1.19034,-0.920455 1.55965,-1.653409 0.36932,-0.732955 0.55398,-1.639205 0.55398,-2.718751 V -3.9375 h -2.54829 v 8.019886 c 0,0.948864 -0.24716,1.690342 -0.74149,2.224432 -0.49431,0.539774 -1.17329,0.80966 -2.03692,0.80966 -0.59091,0 -1.11649,-0.127842 -1.57671,-0.383524 -0.45454,-0.255682 -0.81534,-0.630682 -1.08238,-1.125 -0.26137,-0.488636 -0.39205,-1.079544 -0.39205,-1.772726 z m 9.62639,-7.772728 z m 7.82387,13.09091 V 7.107955 h -7.15057 V 9.15341 Z m -5.23296,3.136363 h 2.5483 V -0.09375 c 0,-0.494318 0.0739,-0.866478 0.22159,-1.116478 0.14772,-0.244318 0.33807,-0.41193 0.57103,-0.50284 0.23863,-0.085226 0.49716,-0.12784 0.77555,-0.12784 0.20455,0 0.38353,0.014204 0.53695,0.042612 0.15339,0.02841 0.27272,0.051136 0.35795,0.068182 l 0.46022,-2.105114 c -0.14772,-0.056818 -0.35795,-0.113636 -0.63067,-0.170454 -0.27274,-0.0625 -0.61365,-0.09659 -1.02274,-0.102272 C 160.2559,-4.119318 159.6309,-4 159.05136,-3.75 c -0.57954,0.25 -1.04829,0.636364 -1.40625,1.15909 -0.35796,0.522728 -0.53693,1.178978 -0.53693,1.96875 z M 162.99097,-3.9375 Z m 1.71307,0 V 9.15341 h 2.5483 V -3.9375 Z m 1.28693,15.110796 c -0.4432,0 -0.82387,0.147727 -1.14205,0.443182 -0.3125,0.301136 -0.46875,0.659091 -0.46875,1.073864 0,0.420454 0.15625,0.778409 0.46875,1.073864 0.31818,0.301136 0.69885,0.451704 1.14205,0.451704 0.44319,0 0.82103,-0.150568 1.13353,-0.451704 0.31817,-0.295455 0.47726,-0.65341 0.47726,-1.073864 0,-0.414773 -0.15909,-0.772728 -0.47726,-1.073864 -0.3125,-0.295455 -0.69034,-0.443182 -1.13353,-0.443182 z M 168.51154,-3.9375 Z M 176.3354,9.15341 V 7.107955 h -7.15057 V 9.15341 Z m -5.23295,3.136363 h 2.54829 V -0.09375 c 0,-0.494318 0.0739,-0.866478 0.22159,-1.116478 0.14772,-0.244318 0.33807,-0.41193 0.57103,-0.50284 0.23863,-0.085226 0.49716,-0.12784 0.77556,-0.12784 0.20454,0 0.38353,0.014204 0.53694,0.042612 0.1534,0.02841 0.27272,0.051136 0.35795,0.068182 l 0.46023,-2.105114 c -0.14772,-0.056818 -0.35796,-0.113636 -0.63068,-0.170454 -0.27274,-0.0625 -0.61365,-0.09659 -1.02274,-0.102272 -0.67045,-0.011364 -1.29545,0.107954 -1.875,0.357954 -0.57954,0.25 -1.04829,0.636364 -1.40625,1.15909 -0.35795,0.522728 -0.53692,1.178978 -0.53692,1.96875 z M 176.98523,-3.9375 Z m 3.32387,-4.909092 c -0.38069,0 -0.72728,0.03125 -1.03978,0.093752 -0.3125,0.056818 -0.54546,0.119318 -0.69887,0.1875 l 0.61365,2.088068 c 0.46589,-0.125 0.88067,-0.178978 1.24431,-0.161932 0.36363,0.017046 0.68466,0.153408 0.96307,0.40909 0.28409,0.255682 0.53409,0.673296 0.75,1.252842 l 0.31534,0.869318 -4.78977,13.261364 h 2.72727 l 3.31534,-10.159092 h 0.13636 l 3.31534,10.159092 h 2.7358 l -5.39489,-14.83807 c -0.25,-0.681818 -0.56817,-1.258522 -0.95454,-1.730112 -0.38637,-0.477274 -0.84659,-0.835228 -1.38068,-1.073864 -0.5341,-0.238638 -1.15341,-0.357956 -1.85795,-0.357956 z m 9.81385,4.909092 z m 2.45455,7.244318 c 0,2.136364 0.28125,4.102273 0.84375,5.897728 0.5625,1.795455 1.38353,3.451705 2.46307,4.96875 h 2.33522 c -0.42045,-0.5625 -0.8125,-1.252841 -1.17613,-2.071023 -0.36363,-0.818182 -0.68182,-1.715909 -0.95454,-2.693181 -0.27272,-0.971591 -0.4858,-1.980115 -0.63921,-3.02557 -0.15341,-1.039772 -0.23012,-2.06534 -0.23012,-3.076704 0,-1.352272 0.13353,-2.72159 0.40058,-4.107954 0.26704,-1.386364 0.62783,-2.673296 1.08238,-3.860796 0.45454,-1.1875 0.96023,-2.15625 1.51704,-2.90625 h -2.33522 c -1.07954,1.517046 -1.90057,3.173296 -2.46307,4.96875 -0.5625,1.795454 -0.84375,3.764204 -0.84375,5.90625 z m 6.15977,-7.244318 z m 6.61364,7.244318 c 0,-2.142046 -0.28125,-4.110796 -0.84375,-5.90625 -0.5625,-1.795454 -1.38352,-3.451704 -2.46306,-4.96875 h -2.33524 c 0.42046,0.5625 0.8125,1.25284 1.17613,2.071022 0.36364,0.818182 0.68183,1.71307 0.95456,2.68466 0.27272,0.977274 0.4858,1.988636 0.63919,3.03409 0.15342,1.045454 0.23012,2.073864 0.23012,3.085228 0,1.34659 -0.13351,2.713068 -0.40056,4.099432 -0.26704,1.386364 -0.62785,2.673296 -1.08239,3.860796 -0.45455,1.1875 -0.96022,2.15625 -1.51705,2.90625 h 2.33524 c 1.07954,-1.517045 1.90056,-3.173295 2.46306,-4.96875 0.5625,-1.795455 0.84375,-3.761364 0.84375,-5.897728 z"
       style="fill:#000000;fill-opacity:0.8;fill-rule:nonzero;stroke:none"
       transform="matrix(1.3333333,0,0,-1.3333333,842.66667,458.08333)" /><path
       id="path13"
       d="m 140.90941,118.17508 c 0.63368,0.53362 0.71478,1.4799 0.18117,2.11357 -0.53362,0.63368 -1.47991,0.71478 -2.11358,0.18117 z M 99.880402,87.546356 c -0.633675,-0.533615 -0.714783,-1.479896 -0.181168,-2.113571 0.533626,-0.633667 1.479896,-0.714783 2.113566,-0.18116 z M 40.062813,33.251625 c 0.633674,0.533623 0.714783,1.479897 0.181164,2.113571 -0.533619,0.633675 -1.479897,0.714783 -2.113568,0.181168 z M 7.183562,16.232079 C 6.649942,16.865753 5.496529,16.660278 5.214561,15.881317 L 0.68073,3.356125 C 0.398762,2.577164 1.153414,1.681015 1.969001,1.826302 l 13.114046,2.336181 c 0.815587,0.145294 1.214349,1.246918 0.680729,1.880585 z M 138.977,120.46982 99.880402,87.546356 101.8128,85.251625 140.90941,118.17508 Z M 38.130409,35.546364 9.360099,11.318741 11.292506,9.024002 40.062813,33.251625 Z"
       style="fill:#b3b3b3;fill-opacity:1;fill-rule:nonzero;stroke:none"
       transform="matrix(1.3333333,0,0,-1.3333333,888.03784,894.53198)" /><path
       id="path14"
       d="m 0.381744,-3.9375 z m 7.355114,-0.264204 c -1.289773,0 -2.400568,0.275568 -3.332386,0.826704 -0.926137,0.556818 -1.642046,1.338068 -2.147728,2.34375 -0.5,1.011364 -0.75,2.196024 -0.75,3.553978 0,1.34091 0.25,2.522728 0.75,3.545454 0.505682,1.022727 1.210228,1.821023 2.113637,2.394887 0.909091,0.573863 1.971591,0.860795 3.1875,0.860795 0.738636,0 1.454545,-0.122159 2.147727,-0.366478 0.693181,-0.244317 1.31534,-0.62784 1.866477,-1.150568 0.551137,-0.522727 0.985796,-1.201704 1.303978,-2.036932 0.318182,-0.829546 0.477273,-1.838068 0.477273,-3.025568 V 1.84091 H 2.947085 V 3.75 h 7.909091 c 0,0.670454 -0.136364,1.264204 -0.409091,1.78125 C 10.174358,6.053978 9.790835,6.46591 9.296517,6.767046 8.80788,7.068182 8.234017,7.21875 7.574926,7.21875 6.859017,7.21875 6.234017,7.042614 5.699926,6.690342 5.171517,6.34375 4.762426,5.889204 4.472653,5.326704 4.188563,4.769886 4.046517,4.164774 4.046517,3.511364 V 2.019886 c 0,-0.875 0.153409,-1.619318 0.460227,-2.232954 0.3125,-0.613636 0.747159,-1.082386 1.303978,-1.40625 C 6.36754,-1.9375 7.018108,-2.09659 7.762426,-2.09659 c 0.482955,0 0.923296,0.068182 1.321023,0.204544 0.397727,0.142046 0.741477,0.352272 1.03125,0.630682 0.289773,0.27841 0.511364,0.62216 0.664773,1.03125 l 2.411932,-0.434658 C 12.998221,-1.375 12.65163,-1.99716 12.15163,-2.53125 11.657313,-3.05966 11.035154,-3.471592 10.285154,-3.767046 9.540835,-4.056818 8.691403,-4.201704 7.736858,-4.201704 Z m 6.274824,0.264204 z m 4.261363,7.772728 V -3.9375 H 15.72475 V 9.15341 h 2.446023 V 7.022728 h 0.161932 c 0.301136,0.693181 0.772726,1.249999 1.414772,1.670454 0.647728,0.420455 1.463069,0.630682 2.446024,0.630682 0.892045,0 1.673295,-0.1875 2.34375,-0.5625 0.670454,-0.369319 1.19034,-0.920455 1.559658,-1.653409 C 26.466227,6.375 26.650887,5.46875 26.650887,4.389204 V -3.9375 h -2.548296 v 8.019886 c 0,0.948864 -0.24716,1.690342 -0.741478,2.224432 -0.494318,0.539774 -1.173294,0.80966 -2.036932,0.80966 -0.590908,0 -1.116476,-0.127842 -1.576704,-0.383524 -0.454546,-0.255682 -0.81534,-0.630682 -1.082386,-1.125 C 18.403727,5.119318 18.273045,4.52841 18.273045,3.835228 Z M 27.899431,-3.9375 Z M 35.723297,9.15341 V 7.107955 h -7.15057 V 9.15341 Z m -5.232956,3.136363 h 2.548294 V -0.09375 c 0,-0.494318 0.07386,-0.866478 0.221592,-1.116478 0.147728,-0.244318 0.33807,-0.41193 0.571022,-0.50284 0.238636,-0.085226 0.497162,-0.12784 0.77557,-0.12784 0.204544,0 0.383522,0.014204 0.53693,0.042612 0.153408,0.02841 0.272728,0.051136 0.357956,0.068182 l 0.460224,-2.105114 c -0.147724,-0.056818 -0.357952,-0.113636 -0.63068,-0.170454 -0.272728,-0.0625 -0.613636,-0.09659 -1.022728,-0.102272 C 33.638069,-4.119318 33.013069,-4 32.433521,-3.75 c -0.579544,0.25 -1.048294,0.636364 -1.40625,1.15909 -0.357954,0.522728 -0.53693,1.178978 -0.53693,1.96875 z M 36.373119,-3.9375 Z m 1.71307,0 V 9.15341 h 2.548294 V -3.9375 Z m 1.28693,15.110796 c -0.44318,0 -0.823864,0.147727 -1.142044,0.443182 -0.3125,0.301136 -0.46875,0.659091 -0.46875,1.073864 0,0.420454 0.15625,0.778409 0.46875,1.073864 0.31818,0.301136 0.698864,0.451704 1.142044,0.451704 0.44318,0 0.821022,-0.150568 1.133522,-0.451704 0.31818,-0.295455 0.477272,-0.65341 0.477272,-1.073864 0,-0.414773 -0.159092,-0.772728 -0.477272,-1.073864 -0.3125,-0.295455 -0.690342,-0.443182 -1.133522,-0.443182 z M 41.893681,-3.9375 Z M 49.717545,9.15341 V 7.107955 h -7.15057 V 9.15341 Z m -5.232956,3.136363 h 2.548298 V -0.09375 c 0,-0.494318 0.07386,-0.866478 0.221588,-1.116478 0.147728,-0.244318 0.33807,-0.41193 0.571025,-0.50284 0.238637,-0.085226 0.497159,-0.12784 0.775567,-0.12784 0.204547,0 0.383525,0.014204 0.536933,0.042612 0.153409,0.02841 0.272725,0.051136 0.357953,0.068182 l 0.460228,-2.105114 C 49.808453,-3.892046 49.598225,-3.948864 49.3255,-4.005682 49.052773,-4.068182 48.711864,-4.102272 48.302773,-4.107954 47.632317,-4.119318 47.007317,-4 46.427773,-3.75 c -0.579548,0.25 -1.048298,0.636364 -1.40625,1.15909 -0.357956,0.522728 -0.536934,1.178978 -0.536934,1.96875 z M 50.367371,-3.9375 Z m 3.323864,-4.909092 c -0.38068,0 -0.727272,0.03125 -1.039772,0.093752 -0.3125,0.056818 -0.545456,0.119318 -0.698864,0.1875 l 0.613636,2.088068 c 0.465908,-0.125 0.88068,-0.178978 1.244316,-0.161932 0.363636,0.017046 0.684662,0.153408 0.96307,0.40909 0.284092,0.255682 0.534092,0.673296 0.75,1.252842 l 0.315342,0.869318 -4.789772,13.261364 h 2.727272 l 3.315338,-10.159092 h 0.136364 L 60.543507,9.15341 h 2.735798 l -5.39489,-14.83807 c -0.25,-0.681818 -0.56818,-1.258522 -0.954544,-1.730112 C 56.543507,-7.892046 56.083282,-8.25 55.549191,-8.488636 55.015099,-8.727274 54.395782,-8.846592 53.691235,-8.846592 Z m 8.993572,4.909092 z m 3.392044,-0.161932 c -0.465904,0 -0.866478,0.164772 -1.201706,0.494318 -0.335228,0.335228 -0.502838,0.738638 -0.502838,1.210228 0,0.46591 0.16761,0.863636 0.502838,1.193182 0.335228,0.335226 0.735802,0.50284 1.201706,0.50284 0.465912,0 0.866478,-0.167614 1.201706,-0.50284 0.335228,-0.329546 0.502838,-0.727272 0.502838,-1.193182 0,-0.3125 -0.07954,-0.599432 -0.238632,-0.860796 -0.153412,-0.255682 -0.357956,-0.460226 -0.61364,-0.613636 -0.255684,-0.15341 -0.539772,-0.230114 -0.852272,-0.230114 z m 2.94883,0.161932 z m 5.522728,-0.289772 c -0.829545,0 -1.579545,0.153408 -2.25,0.460226 -0.670456,0.3125 -1.201706,0.764204 -1.59375,1.355114 -0.386361,0.59091 -0.579545,1.315342 -0.579545,2.173296 0,0.738636 0.142045,1.34659 0.426133,1.823864 0.284095,0.477272 0.667617,0.855112 1.150573,1.133522 0.482949,0.27841 1.022721,0.488636 1.619316,0.630682 0.596589,0.142046 1.204545,0.25 1.823861,0.323864 0.784095,0.09091 1.420456,0.164772 1.909095,0.22159 0.48864,0.0625 0.84375,0.161932 1.065339,0.298296 0.221595,0.136364 0.332389,0.357954 0.332389,0.664772 v 0.05966 c 0,0.744318 -0.210228,1.321024 -0.630684,1.730114 -0.414772,0.40909 -1.034095,0.613636 -1.857955,0.613636 -0.857956,0 -1.534096,-0.190341 -2.028412,-0.571022 C 73.446136,6.315342 73.10807,5.897728 72.92057,5.4375 l -2.394889,0.545454 c 0.284095,0.795454 0.698867,1.4375 1.244316,1.926137 0.551139,0.494319 1.184662,0.852274 1.900573,1.073865 0.715905,0.227272 1.46875,0.340908 2.258522,0.340908 0.522728,0 1.076699,-0.0625 1.661927,-0.1875 0.590912,-0.119319 1.142051,-0.340909 1.653412,-0.664772 0.517044,-0.323864 0.940338,-0.786933 1.269889,-1.389206 0.329544,-0.59659 0.494316,-1.372158 0.494316,-2.326704 V -3.9375 h -2.488639 v 1.789772 h -0.102272 c -0.164772,-0.329546 -0.411927,-0.653408 -0.741478,-0.97159 -0.329544,-0.318182 -0.752838,-0.582386 -1.269883,-0.792614 -0.517051,-0.210226 -1.136367,-0.31534 -1.857955,-0.31534 z m 0.553977,2.045454 c 0.704545,0 1.306817,0.139204 1.806817,0.417614 0.505683,0.27841 0.889206,0.642046 1.150566,1.090908 0.267051,0.454546 0.400573,0.94034 0.400573,1.457386 V 2.471592 C 78.369431,2.380682 78.193291,2.295456 77.931931,2.21591 77.676247,2.142046 77.383636,2.076704 77.054092,2.019886 76.724541,1.96875 76.403519,1.920454 76.091019,1.875 75.778519,1.835228 75.517159,1.801138 75.306931,1.772728 74.812614,1.710228 74.360909,1.605114 73.95182,1.457386 73.548409,1.30966 73.224541,1.096592 72.980225,0.818182 c -0.23864,-0.272728 -0.357956,-0.636364 -0.357956,-1.09091 0,-0.630682 0.232956,-1.107954 0.698867,-1.431818 0.465905,-0.318182 1.059655,-0.477272 1.78125,-0.477272 z M 82.233742,-3.9375 Z m 6.61364,-0.255682 c -1.056817,0 -2,0.269886 -2.829552,0.80966 -0.82386,0.545454 -1.471588,1.321022 -1.943176,2.326704 -0.465912,1.011364 -0.698868,2.224432 -0.698868,3.639204 0,1.414774 0.235794,2.625 0.70739,3.630682 0.477272,1.005682 1.130676,1.775568 1.960228,2.309659 0.829544,0.534091 1.769882,0.801137 2.821022,0.801137 0.8125,0 1.465912,-0.136364 1.960228,-0.409091 0.5,-0.267045 0.88636,-0.579545 1.159088,-0.9375 0.278412,-0.357955 0.494323,-0.673296 0.647728,-0.946023 h 0.153412 v 6.485796 h 2.548294 V -3.9375 h -2.48864 v 2.036932 H 92.63147 c -0.153405,-0.27841 -0.375,-0.596592 -0.664772,-0.954546 -0.284096,-0.357954 -0.67614,-0.670454 -1.17614,-0.9375 -0.5,-0.267046 -1.147728,-0.400568 -1.943176,-0.400568 z m 0.5625,2.173296 c 0.732948,0 1.352264,0.193182 1.857948,0.579546 0.511368,0.392046 0.897735,0.934658 1.159096,1.62784 0.267044,0.693182 0.400566,1.5 0.400566,2.420454 0,0.909092 -0.130684,1.704546 -0.392044,2.386364 -0.26136,0.681818 -0.644883,1.213068 -1.150566,1.59375 -0.505684,0.380682 -1.130684,0.571023 -1.875,0.571023 -0.767052,0 -1.406258,-0.198863 -1.917618,-0.596591 -0.51136,-0.397726 -0.897728,-0.94034 -1.159088,-1.62784 -0.255684,-0.6875 -0.383522,-1.463068 -0.383522,-2.326706 0,-0.875 0.130684,-1.661932 0.392044,-2.360794 0.26136,-0.698864 0.647728,-1.252842 1.159088,-1.661932 0.517044,-0.40341 1.153412,-0.605114 1.909096,-0.605114 z M 96.801186,-3.9375 Z m 6.613644,-0.255682 c -1.05682,0 -2,0.269886 -2.82956,0.80966 -0.823856,0.545454 -1.471584,1.321022 -1.943173,2.326704 -0.465911,1.011364 -0.698867,2.224432 -0.698867,3.639204 0,1.414774 0.235794,2.625 0.70739,3.630682 0.477272,1.005682 1.130676,1.775568 1.96023,2.309659 0.82954,0.534091 1.76988,0.801137 2.82102,0.801137 0.8125,0 1.46591,-0.136364 1.96023,-0.409091 0.5,-0.267045 0.88636,-0.579545 1.15909,-0.9375 0.27841,-0.357955 0.49432,-0.673296 0.64772,-0.946023 h 0.15341 v 6.485796 h 2.5483 V -3.9375 h -2.48864 v 2.036932 h -0.21307 c -0.1534,-0.27841 -0.375,-0.596592 -0.66477,-0.954546 -0.28409,-0.357954 -0.67614,-0.670454 -1.17614,-0.9375 -0.5,-0.267046 -1.14773,-0.400568 -1.94317,-0.400568 z m 0.5625,2.173296 c 0.73294,0 1.35226,0.193182 1.85794,0.579546 0.51137,0.392046 0.89774,0.934658 1.1591,1.62784 0.26704,0.693182 0.40057,1.5 0.40057,2.420454 0,0.909092 -0.13069,1.704546 -0.39205,2.386364 -0.26136,0.681818 -0.64488,1.213068 -1.15057,1.59375 -0.50568,0.380682 -1.13068,0.571023 -1.87499,0.571023 -0.76706,0 -1.40626,-0.198863 -1.91762,-0.596591 -0.51136,-0.397726 -0.89773,-0.94034 -1.15909,-1.62784 -0.25568,-0.6875 -0.38352,-1.463068 -0.38352,-2.326706 0,-0.875 0.13068,-1.661932 0.39204,-2.360794 0.26136,-0.698864 0.64773,-1.252842 1.15909,-1.661932 0.51704,-0.40341 1.15341,-0.605114 1.9091,-0.605114 z m 8.2116,-1.917614 z m 11.0625,0 V -6.102272 H 112.16337 V -3.9375 Z m -0.47943,0 z m 7.22727,-0.264204 c -1.26705,0 -2.35796,0.286932 -3.27273,0.860794 -0.90909,0.579546 -1.60795,1.377842 -2.09659,2.394888 -0.48864,1.017046 -0.73295,2.181818 -0.73295,3.494318 0,1.329546 0.25,2.50284 0.75,3.519886 0.5,1.022727 1.20454,1.821023 2.11364,2.394887 0.90908,0.573863 1.9801,0.860795 3.21305,0.860795 0.99433,0 1.88069,-0.184659 2.65911,-0.553978 0.77839,-0.363636 1.40623,-0.874999 1.88351,-1.53409 0.48296,-0.65909 0.7699,-1.428978 0.8608,-2.30966 H 132.897 c -0.13637,0.613638 -0.44887,1.142046 -0.9375,1.585228 -0.48295,0.443182 -1.13069,0.664772 -1.94319,0.664772 -0.71022,0 -1.33238,-0.1875 -1.86647,-0.5625 -0.52841,-0.369318 -0.94034,-0.897726 -1.2358,-1.585226 -0.29546,-0.681818 -0.44318,-1.488638 -0.44318,-2.420456 0,-0.954546 0.14489,-1.778408 0.43466,-2.47159 0.28977,-0.693182 0.69886,-1.230114 1.22728,-1.610796 0.53408,-0.380682 1.16192,-0.571022 1.88351,-0.571022 0.48296,0 0.92046,0.088068 1.3125,0.264204 0.39772,0.181818 0.73012,0.440342 0.99716,0.775568 0.27272,0.335228 0.46308,0.738638 0.57103,1.210228 h 2.48011 c -0.0909,-0.84659 -0.36648,-1.602272 -0.82671,-2.267046 -0.46022,-0.664774 -1.07671,-1.1875 -1.84943,-1.568182 -0.76704,-0.380682 -1.66761,-0.571022 -2.7017,-0.571022 z m 5.93391,0.264204 z m 7.22728,-0.264204 c -1.22728,0 -2.29829,0.28125 -3.21307,0.84375 -0.91478,0.5625 -1.625,1.349432 -2.13068,2.360796 -0.50569,1.011362 -0.75853,2.19318 -0.75853,3.545454 0,1.357954 0.25284,2.545454 0.75853,3.5625 0.50568,1.017045 1.2159,1.806818 2.13068,2.369318 0.91478,0.5625 1.98579,0.84375 3.21307,0.84375 1.22727,0 2.29828,-0.28125 3.21306,-0.84375 0.91478,-0.5625 1.625,-1.352273 2.13069,-2.369318 0.50568,-1.017046 0.75852,-2.204546 0.75852,-3.5625 0,-1.352274 -0.25284,-2.534092 -0.75852,-3.545454 -0.50569,-1.011364 -1.21591,-1.798296 -2.13069,-2.360796 -0.91478,-0.5625 -1.98579,-0.84375 -3.21306,-0.84375 z m 0.009,2.139204 c 0.79545,0 1.45454,0.210228 1.97727,0.630682 0.52273,0.420454 0.90909,0.980114 1.15909,1.678978 0.25568,0.698862 0.38352,1.468748 0.38352,2.309658 0,0.835228 -0.12784,1.602274 -0.38352,2.301136 -0.25,0.704546 -0.63636,1.269886 -1.15909,1.696024 -0.52273,0.426136 -1.18182,0.639204 -1.97727,0.639204 -0.80114,0 -1.46592,-0.213068 -1.99433,-0.639204 -0.52272,-0.426138 -0.91192,-0.991478 -1.1676,-1.696024 -0.25,-0.698862 -0.375,-1.465908 -0.375,-2.301136 0,-0.84091 0.125,-1.610796 0.375,-2.309658 0.25568,-0.698864 0.64488,-1.258524 1.1676,-1.678978 0.52841,-0.420454 1.19319,-0.630682 1.99433,-0.630682 z m 6.76915,-1.875 z m 1.71307,0 V 9.15341 h 2.44601 V 7.022728 h 0.16194 c 0.27273,0.721591 0.71875,1.28409 1.33806,1.687499 0.61933,0.409091 1.36081,0.613637 2.22444,0.613637 0.875,0 1.60796,-0.204546 2.19886,-0.613637 0.5966,-0.40909 1.03694,-0.97159 1.32103,-1.687499 h 0.13636 c 0.3125,0.698863 0.80967,1.255681 1.49148,1.670454 0.6818,0.420455 1.4943,0.630682 2.4375,0.630682 1.1875,0 2.15625,-0.372159 2.90625,-1.116478 0.75569,-0.744317 1.13352,-1.866476 1.13352,-3.366476 V -3.9375 h -2.54829 v 8.539772 c 0,0.886364 -0.24148,1.52841 -0.72444,1.926138 -0.48296,0.397726 -1.05966,0.59659 -1.73012,0.59659 -0.82954,0 -1.47442,-0.255682 -1.93465,-0.767046 -0.46023,-0.505682 -0.69035,-1.15625 -0.69035,-1.951704 V -3.9375 h -2.53976 v 8.701704 c 0,0.710228 -0.22159,1.28125 -0.66478,1.713068 -0.44318,0.431818 -1.01988,0.647728 -1.73011,0.647728 -0.48295,0 -0.92898,-0.12784 -1.33807,-0.383522 -0.40341,-0.25 -0.73012,-0.599432 -0.98012,-1.048296 -0.24431,-0.448864 -0.36647,-0.96875 -0.36647,-1.55966 V -3.9375 Z m 19.04185,0 z m 1.71308,-4.909092 V 9.15341 h 2.48863 V 7.03125 h 0.21307 c 0.14772,0.272727 0.3608,0.588068 0.63919,0.946023 0.27842,0.357955 0.66478,0.670455 1.15911,0.9375 0.49431,0.272727 1.14772,0.409091 1.96022,0.409091 1.05682,0 2,-0.267046 2.82954,-0.801137 0.82955,-0.534091 1.48012,-1.303977 1.95171,-2.309659 0.47728,-1.005682 0.71591,-2.215908 0.71591,-3.630682 0,-1.414772 -0.23579,-2.62784 -0.70738,-3.639204 -0.47161,-1.005682 -1.11933,-1.78125 -1.94319,-2.326704 -0.82387,-0.539774 -1.76421,-0.80966 -2.82102,-0.80966 -0.79545,0 -1.44603,0.133522 -1.9517,0.400568 -0.5,0.267046 -0.89205,0.579546 -1.17614,0.9375 -0.2841,0.357954 -0.50285,0.676136 -0.65625,0.954546 h -0.15341 v -6.946024 z m 2.49714,11.454546 c 0,-0.920454 0.13353,-1.727272 0.40058,-2.420454 0.26704,-0.693182 0.65341,-1.235794 1.15909,-1.62784 0.50569,-0.386364 1.125,-0.579546 1.85795,-0.579546 0.76137,0 1.39772,0.201704 1.90909,0.605114 0.51137,0.40909 0.89774,0.963068 1.1591,1.661932 0.26705,0.698862 0.40056,1.485794 0.40056,2.360794 0,0.863638 -0.13067,1.639206 -0.39204,2.326706 -0.25568,0.6875 -0.64205,1.230114 -1.15909,1.62784 -0.51137,0.397728 -1.15057,0.596591 -1.91762,0.596591 -0.73863,0 -1.36363,-0.190341 -1.875,-0.571023 C 175.94022,6.207386 175.5567,5.676136 175.29533,4.994318 175.03397,4.3125 174.90327,3.517046 174.90327,2.607954 Z M 185.04956,-3.9375 Z m 7.22728,-0.264204 c -1.22728,0 -2.29829,0.28125 -3.21307,0.84375 -0.91478,0.5625 -1.625,1.349432 -2.13068,2.360796 -0.50569,1.011362 -0.75853,2.19318 -0.75853,3.545454 0,1.357954 0.25284,2.545454 0.75853,3.5625 0.50568,1.017045 1.2159,1.806818 2.13068,2.369318 0.91478,0.5625 1.98579,0.84375 3.21307,0.84375 1.22726,0 2.29828,-0.28125 3.21306,-0.84375 0.91478,-0.5625 1.625,-1.352273 2.13069,-2.369318 0.50568,-1.017046 0.75851,-2.204546 0.75851,-3.5625 0,-1.352274 -0.25283,-2.534092 -0.75851,-3.545454 -0.50569,-1.011364 -1.21591,-1.798296 -2.13069,-2.360796 -0.91478,-0.5625 -1.9858,-0.84375 -3.21306,-0.84375 z m 0.009,2.139204 c 0.79546,0 1.45455,0.210228 1.97728,0.630682 0.52272,0.420454 0.90909,0.980114 1.15909,1.678978 0.25568,0.698862 0.38352,1.468748 0.38352,2.309658 0,0.835228 -0.12784,1.602274 -0.38352,2.301136 -0.25,0.704546 -0.63637,1.269886 -1.15909,1.696024 -0.52273,0.426136 -1.18182,0.639204 -1.97728,0.639204 -0.80113,0 -1.46591,-0.213068 -1.99432,-0.639204 -0.52272,-0.426138 -0.91193,-0.991478 -1.1676,-1.696024 -0.25,-0.698862 -0.375,-1.465908 -0.375,-2.301136 0,-0.84091 0.125,-1.610796 0.375,-2.309658 0.25567,-0.698864 0.64488,-1.258524 1.1676,-1.678978 0.52841,-0.420454 1.19319,-0.630682 1.99432,-0.630682 z m 6.76914,-1.875 z m 4.26137,7.772728 V -3.9375 h -2.5483 V 9.15341 h 2.44602 V 7.022728 h 0.16194 c 0.30113,0.693181 0.77272,1.249999 1.41476,1.670454 0.64772,0.420455 1.46308,0.630682 2.44603,0.630682 0.89205,0 1.6733,-0.1875 2.34375,-0.5625 0.67046,-0.369319 1.19034,-0.920455 1.55965,-1.653409 0.36932,-0.732955 0.55398,-1.639205 0.55398,-2.718751 V -3.9375 h -2.54829 v 8.019886 c 0,0.948864 -0.24716,1.690342 -0.74149,2.224432 -0.4943,0.539774 -1.17329,0.80966 -2.03692,0.80966 -0.59091,0 -1.11649,-0.127842 -1.57671,-0.383524 -0.45454,-0.255682 -0.81534,-0.630682 -1.08238,-1.125 -0.26137,-0.488636 -0.39204,-1.079544 -0.39204,-1.772726 z m 9.62639,-7.772728 z m 7.35511,-0.264204 c -1.28978,0 -2.40057,0.275568 -3.33239,0.826704 -0.92614,0.556818 -1.64203,1.338068 -2.14772,2.34375 -0.5,1.011364 -0.75,2.196024 -0.75,3.553978 0,1.34091 0.25,2.522728 0.75,3.545454 0.50569,1.022727 1.21023,1.821023 2.11363,2.394887 0.9091,0.573863 1.9716,0.860795 3.1875,0.860795 0.73863,0 1.45454,-0.122159 2.14773,-0.366478 0.69318,-0.244317 1.31534,-0.62784 1.86647,-1.150568 0.55114,-0.522727 0.9858,-1.201704 1.30399,-2.036932 0.31817,-0.829546 0.47726,-1.838068 0.47726,-3.025568 V 1.84091 H 215.50807 V 3.75 h 7.90909 c 0,0.670454 -0.13637,1.264204 -0.40909,1.78125 -0.27272,0.522728 -0.65625,0.93466 -1.15055,1.235796 -0.48864,0.301136 -1.06251,0.451704 -1.72161,0.451704 -0.7159,0 -1.3409,-0.176136 -1.875,-0.528408 -0.5284,-0.346592 -0.93748,-0.801138 -1.22726,-1.363638 -0.28409,-0.556818 -0.42614,-1.16193 -0.42614,-1.81534 V 2.019886 c 0,-0.875 0.15342,-1.619318 0.46023,-2.232954 0.31249,-0.613636 0.74716,-1.082386 1.30397,-1.40625 0.55682,-0.318182 1.20739,-0.477272 1.9517,-0.477272 0.48296,0 0.92331,0.068182 1.32103,0.204544 0.39772,0.142046 0.74147,0.352272 1.03125,0.630682 0.28978,0.27841 0.51137,0.62216 0.66477,1.03125 l 2.41194,-0.434658 c -0.19319,-0.710228 -0.53978,-1.332388 -1.03978,-1.866478 -0.49431,-0.52841 -1.11647,-0.940342 -1.86647,-1.235796 -0.74433,-0.289772 -1.59375,-0.434658 -2.5483,-0.434658 z m 6.27483,0.264204 z m 4.26137,7.772728 V -3.9375 h -2.5483 V 9.15341 h 2.44602 V 7.022728 h 0.16194 c 0.30113,0.693181 0.77272,1.249999 1.41476,1.670454 0.64772,0.420455 1.46308,0.630682 2.44603,0.630682 0.89205,0 1.6733,-0.1875 2.34375,-0.5625 0.67046,-0.369319 1.19034,-0.920455 1.55965,-1.653409 0.36932,-0.732955 0.55398,-1.639205 0.55398,-2.718751 V -3.9375 h -2.54829 v 8.019886 c 0,0.948864 -0.24716,1.690342 -0.74148,2.224432 -0.49431,0.539774 -1.1733,0.80966 -2.03693,0.80966 -0.59091,0 -1.11649,-0.127842 -1.57671,-0.383524 -0.45454,-0.255682 -0.81534,-0.630682 -1.08238,-1.125 -0.26137,-0.488636 -0.39204,-1.079544 -0.39204,-1.772726 z m 9.62637,-7.772728 z m 7.82387,13.09091 V 7.107955 h -7.15058 V 9.15341 Z m -5.23296,3.136363 h 2.5483 V -0.09375 c 0,-0.494318 0.0739,-0.866478 0.22158,-1.116478 0.14773,-0.244318 0.33808,-0.41193 0.57103,-0.50284 0.23864,-0.085226 0.49717,-0.12784 0.77556,-0.12784 0.20455,0 0.38353,0.014204 0.53694,0.042612 0.1534,0.02841 0.27272,0.051136 0.35796,0.068182 l 0.46022,-2.105114 c -0.14772,-0.056818 -0.35796,-0.113636 -0.63068,-0.170454 -0.27273,-0.0625 -0.61364,-0.09659 -1.02273,-0.102272 -0.67046,-0.011364 -1.29546,0.107954 -1.875,0.357954 -0.57955,0.25 -1.0483,0.636364 -1.40625,1.15909 -0.35796,0.522728 -0.53693,1.178978 -0.53693,1.96875 z M 248.93362,-3.9375 Z m 2.45455,7.244318 c 0,2.136364 0.28125,4.102273 0.84375,5.897728 0.5625,1.795455 1.38353,3.451705 2.46307,4.96875 h 2.33522 c -0.42044,-0.5625 -0.8125,-1.252841 -1.17613,-2.071023 -0.36363,-0.818182 -0.68182,-1.715909 -0.95454,-2.693181 -0.27272,-0.971591 -0.4858,-1.980115 -0.63921,-3.02557 -0.15341,-1.039772 -0.23012,-2.06534 -0.23012,-3.076704 0,-1.352272 0.13353,-2.72159 0.40058,-4.107954 0.26704,-1.386364 0.62783,-2.673296 1.08238,-3.860796 0.45454,-1.1875 0.96022,-2.15625 1.51704,-2.90625 h -2.33522 c -1.07954,1.517046 -1.90057,3.173296 -2.46307,4.96875 -0.5625,1.795454 -0.84375,3.764204 -0.84375,5.90625 z m 6.15977,-7.244318 z m 6.61365,7.244318 c 0,-2.142046 -0.28125,-4.110796 -0.84375,-5.90625 -0.5625,-1.795454 -1.38351,-3.451704 -2.46307,-4.96875 h -2.33524 c 0.42044,0.5625 0.8125,1.25284 1.17615,2.071022 0.36362,0.818182 0.68179,1.71307 0.95453,2.68466 0.27273,0.977274 0.48581,1.988636 0.63922,3.03409 0.15341,1.045454 0.2301,2.073864 0.2301,3.085228 0,1.34659 -0.13351,2.713068 -0.40057,4.099432 -0.26706,1.386364 -0.62784,2.673296 -1.08237,3.860796 -0.45456,1.1875 -0.96024,2.15625 -1.51706,2.90625 h 2.33524 c 1.07956,-1.517045 1.90057,-3.173295 2.46307,-4.96875 0.5625,-1.795455 0.84375,-3.761364 0.84375,-5.897728 z"
       style="fill:#000000;fill-opacity:0.8;fill-rule:nonzero;stroke:none"
       transform="matrix(1.3333333,0,0,-1.3333333,803.33333,820.75)" /><path
       id="path15"
       d="m 0.966204,120.46982 c -0.633674,0.53361 -1.579951,0.45251 -2.113571,-0.18117 -0.533619,-0.63367 -0.45251,-1.57995 0.181163,-2.11357 z M 39.096603,86.398987 38.130402,85.251625 v 0 z m 61.749997,-51.999993 0.9662,1.14737 z M 124.17943,6.043076 c -0.53362,-0.633675 -0.13486,-1.735299 0.68073,-1.880593 l 13.11405,-2.336181 c 0.81558,-0.145287 1.57024,0.750862 1.28827,1.529823 l -4.53383,12.525192 c -0.28196,0.778961 -1.43539,0.984436 -1.96901,0.350762 z M -0.966204,118.17508 38.130402,85.251625 40.062805,87.546356 0.966204,120.46982 Z m 39.096606,-32.923455 61.75,-52 1.932398,2.294739 -61.749995,51.999992 z m 61.75,-52 28.770298,-24.227623 1.93241,2.294739 -28.77031,24.227623 z"
       style="fill:#b3b3b3;fill-opacity:1;fill-rule:nonzero;stroke:none"
       transform="matrix(1.3333333,0,0,-1.3333333,482.70451,894.53198)" /></g></svg>
